<?xml version="1.0" standalone="no"?>
<!DOCTYPE svg PUBLIC "-//W3C//DTD SVG 20010904//EN"
 "http://www.w3.org/TR/2001/REC-SVG-20010904/DTD/svg10.dtd">
<svg version="1.0" xmlns="http://www.w3.org/2000/svg"
 width="260.000000pt" height="260.000000pt" viewBox="0 0 260.000000 260.000000"
 preserveAspectRatio="xMidYMid meet">
<metadata>
Created by potrace 1.14, written by Peter Selinger 2001-2017
</metadata>
<g transform="translate(0.000000,260.000000) scale(0.100000,-0.100000)"
fill="#000000" stroke="none">
<path d="M302 1423 c3 -876 3 -878 25 -925 30 -66 96 -133 162 -165 l56 -28
878 -3 878 -2 -3 557 -4 558 -26 97 c-51 185 -132 329 -261 465 -144 151 -315
248 -527 300 -55 14 -154 17 -623 20 l-557 4 2 -878z m694 428 c23 -10 52 -34
65 -52 24 -34 24 -34 27 -356 l3 -322 317 -3 c358 -3 359 -4 409 -80 26 -39
28 -47 28 -162 l0 -121 -495 0 c-553 0 -530 -3 -587 72 l-28 36 -3 504 -3 503
113 0 c89 0 122 -4 154 -19z"/>
</g>
</svg>
