<svg xmlns="http://www.w3.org/2000/svg" fill="none" viewBox="0 0 50 65"><path d="M18.995 18.45c-.848-1.147-1.987-1.942-3.478-2.442l-.613-.206v-1.471l.613-.206c1.11-.383 2.104-1.119 2.952-2.178.818-1.03 1.227-2.443 1.227-4.15 0-1.47-.35-2.795-1.052-3.943-.701-1.148-1.753-2.09-3.156-2.766-1.432-.706-3.185-1.06-5.202-1.06-3.039 0-5.464.795-7.188 2.325a7.373 7.373 0 00-1.812 2.413c-.439.942-.73 2.002-.848 3.208h5.523c.176-.824.526-1.56.994-2.148.701-.883 1.783-1.354 3.156-1.354 1.257 0 2.28.383 3.04 1.148.759.765 1.139 1.795 1.139 3.09 0 2.09-.994 3.06-1.841 3.531-1.052.589-2.396.883-4.033.883H7.92v4.267h.497c2.163 0 3.711.353 4.763 1.119 1.14.794 1.725 2.089 1.725 3.796 0 1.324-.41 2.413-1.199 3.237-.789.853-1.899 1.265-3.302 1.265-1.578 0-2.834-.47-3.711-1.412-.672-.736-1.11-1.648-1.257-2.767H0c.263 2.767 1.198 4.768 2.893 6.18 1.9 1.59 4.5 2.384 7.773 2.384 2.017 0 3.8-.353 5.231-1.089 1.432-.706 2.513-1.677 3.244-2.913.73-1.236 1.11-2.708 1.11-4.326 0-1.795-.409-3.296-1.256-4.414zM44.974 16.068c-1.608-1-3.361-1.913-4.647-2.325a4.75 4.75 0 01-2.045.47H28.93V4.71h9.352c2.6 0 4.704 2.118 4.704 4.737a4.779 4.779 0 01-2.308 4.091c1.315.441 3.127 1.118 4.675 2.09 1.432-1.649 2.28-3.826 2.28-6.18 0-5.21-4.179-9.447-9.38-9.447H23.728v.03h-.117v31.135h5.318V18.864h9.352c.555 0 1.169 0 1.84-.03 1.637.854 2.572 2.325 2.835 4.238v8.122h4.647v-.03h2.337c-2.104-.294-2.074-1.765-2.337-3.796v-5.944c.029-.147.029-.294.029-.471a5.64 5.64 0 00-2.66-4.885zM18.293 43.466c-1.11.824-2.075 1.824-2.805 3.001 1.227.795 2.22 1.913 2.805 3.296a7.488 7.488 0 012.806-3.296 11.406 11.406 0 00-2.806-3.001zm0 0c-1.11.824-2.075 1.824-2.805 3.001 1.227.795 2.22 1.913 2.805 3.296a7.488 7.488 0 012.806-3.296 11.406 11.406 0 00-2.806-3.001zm0 0c-1.11.824-2.075 1.824-2.805 3.001 1.227.795 2.22 1.913 2.805 3.296a7.488 7.488 0 012.806-3.296 11.406 11.406 0 00-2.806-3.001zm13.472 12.242a7.49 7.49 0 01-2.805 3.296c.76 1.147 1.694 2.177 2.805 3.001 1.11-.824 2.075-1.824 2.805-3.001a7.49 7.49 0 01-2.805-3.296zM18.293 43.466c-1.11.824-2.075 1.824-2.805 3.001 1.227.795 2.22 1.913 2.805 3.296a7.488 7.488 0 012.806-3.296 11.406 11.406 0 00-2.806-3.001zm0 0c-1.11.824-2.075 1.824-2.805 3.001 1.227.795 2.22 1.913 2.805 3.296a7.488 7.488 0 012.806-3.296 11.406 11.406 0 00-2.806-3.001z"/><path fill="#252634" d="M36.411 52.706c0 2.207-.613 4.267-1.695 6.033a7.14 7.14 0 01-2.805-3.414 7.668 7.668 0 00.468-2.59c0-.912-.176-1.795-.468-2.59-.03-.058-.059-.147-.088-.205l-.087-.177a7.49 7.49 0 00-2.806-3.296c-.029-.03-.087-.059-.117-.088a.221.221 0 00-.116-.059 7.124 7.124 0 00-3.683-1c-1.344 0-2.6.353-3.682 1a12.003 12.003 0 00-2.805-3.031 11.25 11.25 0 016.487-2.03c2.397 0 4.647.764 6.488 2.06.03.029.088.058.117.088.029.029.087.058.117.088 1.11.824 2.074 1.824 2.805 3.002.03.029.059.088.088.117.029.03.058.089.087.118 1.082 1.707 1.695 3.767 1.695 5.974zM31.502 62.152a11.275 11.275 0 01-6.487 2.06c-2.397 0-4.647-.765-6.488-2.06-.03-.03-.088-.059-.117-.088-.029-.03-.087-.059-.117-.088-1.11-.824-2.075-1.825-2.805-3.002-.03-.03-.058-.088-.088-.118-.029-.029-.058-.088-.087-.117a11.496 11.496 0 01-1.695-6.033c0-2.207.613-4.267 1.695-6.033a7.141 7.141 0 012.805 3.414 7.666 7.666 0 00-.468 2.59c0 .912.176 1.795.468 2.59.03.058.058.146.088.205l.087.177a7.49 7.49 0 002.806 3.296c.029.03.087.059.117.088a.22.22 0 00.116.059c1.082.647 2.338 1 3.683 1 1.344 0 2.6-.353 3.682-1a11.209 11.209 0 002.805 3.06z"/><path fill="#252634" d="M31.853 43.465c-1.11.824-2.075 1.825-2.806 3.002 1.228.795 2.221 1.913 2.806 3.296a7.49 7.49 0 012.805-3.296c-.73-1.177-1.695-2.178-2.805-3.002zm0 0c-1.11.824-2.075 1.825-2.806 3.002 1.228.795 2.221 1.913 2.806 3.296a7.49 7.49 0 012.805-3.296c-.73-1.177-1.695-2.178-2.805-3.002zm0 0c-1.11.824-2.075 1.825-2.806 3.002 1.228.795 2.221 1.913 2.806 3.296a7.49 7.49 0 012.805-3.296c-.73-1.177-1.695-2.178-2.805-3.002zm0 0c-1.11.824-2.075 1.825-2.806 3.002 1.228.795 2.221 1.913 2.806 3.296a7.49 7.49 0 012.805-3.296c-.73-1.177-1.695-2.178-2.805-3.002zm0 0c-1.11.824-2.075 1.825-2.806 3.002 1.228.795 2.221 1.913 2.806 3.296a7.49 7.49 0 012.805-3.296c-.73-1.177-1.695-2.178-2.805-3.002z"/><path fill="#252634" d="M50 52.706c0 2.207-.614 4.267-1.695 6.033l-.146.235c-.76 1.148-1.695 2.178-2.806 3.002l-.233.177a11.274 11.274 0 01-6.488 2.06c-2.396 0-4.646-.766-6.487-2.06-.03-.03-.088-.06-.117-.089-.03-.03-.088-.059-.117-.088-1.11-.824-2.075-1.825-2.805-3.002-.03-.03-.059-.088-.088-.117-.03-.03-.058-.089-.088-.118a11.495 11.495 0 01-1.695-6.033c0-2.207.614-4.267 1.695-6.033a7.142 7.142 0 012.806 3.414 7.666 7.666 0 00-.468 2.59c0 .912.175 1.795.468 2.59.029.058.058.146.087.205l.088.177a7.489 7.489 0 002.806 3.296c.029.03.087.059.116.088a.22.22 0 00.117.059c1.081.647 2.338 1 3.682 1a7.285 7.285 0 003.653-.97h.03l.233-.148c1.227-.794 2.221-1.913 2.805-3.296l.147-.382a7.666 7.666 0 00.467-2.59c0-.912-.175-1.795-.467-2.59-.03-.059-.059-.147-.088-.206l-.088-.176a7.489 7.489 0 00-2.805-3.296c-.03-.03-.088-.059-.117-.089a.22.22 0 00-.117-.058 7.123 7.123 0 00-3.682-1c-1.344 0-2.6.352-3.682 1a12.001 12.001 0 00-2.805-3.031 11.25 11.25 0 016.487-2.031c2.396 0 4.646.765 6.487 2.06.03.03.088.059.117.088.03.03.088.06.117.089 1.11.823 2.075 1.824 2.806 3.001.029.03.058.089.087.118.03.03.059.088.088.118A11.584 11.584 0 0150 52.706zM21.099 46.703a7.14 7.14 0 00-2.806 3.413c.293.824.468 1.678.468 2.59 0 .912-.175 1.795-.468 2.59a7.14 7.14 0 002.806 3.413 11.496 11.496 0 001.695-6.033 11.29 11.29 0 00-1.695-5.973zm-2.952 9.005a7.49 7.49 0 01-2.805 3.296c.76 1.147 1.695 2.177 2.805 3.001 1.11-.824 2.075-1.824 2.806-3.001a7.489 7.489 0 01-2.806-3.296zm0 0a7.49 7.49 0 01-2.805 3.296c.76 1.147 1.695 2.177 2.805 3.001 1.11-.824 2.075-1.824 2.806-3.001a7.489 7.489 0 01-2.806-3.296zm0 0a7.49 7.49 0 01-2.805 3.296c.76 1.147 1.695 2.177 2.805 3.001 1.11-.824 2.075-1.824 2.806-3.001a7.489 7.489 0 01-2.806-3.296zm0 0a7.49 7.49 0 01-2.805 3.296c.76 1.147 1.695 2.177 2.805 3.001 1.11-.824 2.075-1.824 2.806-3.001a7.489 7.489 0 01-2.806-3.296zm2.952-9.005c-.03-.03-.059-.089-.088-.118-.03-.03-.058-.088-.088-.118-.76-1.148-1.694-2.178-2.805-3.002-.03-.029-.088-.058-.117-.088-.03-.03-.088-.059-.117-.088a11.274 11.274 0 00-6.487-2.06C5.114 41.229 0 46.379 0 52.706s5.114 11.477 11.397 11.477c2.396 0 4.646-.765 6.487-2.06-1.11-.824-2.045-1.854-2.805-3.031a7.124 7.124 0 01-3.682 1c-4.062 0-7.364-3.325-7.364-7.416 0-4.09 3.302-7.415 7.364-7.415 1.344 0 2.6.353 3.682 1a.22.22 0 00.117.059c.029.03.088.059.117.088 1.227.795 2.22 1.913 2.805 3.296l.088.177c.029.059.058.147.087.206.293.824.468 1.677.468 2.59 0 .912-.175 1.795-.468 2.59A7.14 7.14 0 0021.1 58.68a11.496 11.496 0 001.695-6.033c0-2.148-.614-4.208-1.695-5.944zm-2.952 9.005a7.49 7.49 0 01-2.805 3.296c.76 1.147 1.695 2.177 2.805 3.001 1.11-.824 2.075-1.824 2.806-3.001a7.489 7.489 0 01-2.806-3.296zm0 0a7.49 7.49 0 01-2.805 3.296c.76 1.147 1.695 2.177 2.805 3.001 1.11-.824 2.075-1.824 2.806-3.001a7.489 7.489 0 01-2.806-3.296zm0 0a7.49 7.49 0 01-2.805 3.296c.76 1.147 1.695 2.177 2.805 3.001 1.11-.824 2.075-1.824 2.806-3.001a7.489 7.489 0 01-2.806-3.296zm0 0a7.49 7.49 0 01-2.805 3.296c.76 1.147 1.695 2.177 2.805 3.001 1.11-.824 2.075-1.824 2.806-3.001a7.489 7.489 0 01-2.806-3.296zm0 0a7.49 7.49 0 01-2.805 3.296c.76 1.147 1.695 2.177 2.805 3.001 1.11-.824 2.075-1.824 2.806-3.001a7.489 7.489 0 01-2.806-3.296zm2.952-9.005a7.14 7.14 0 00-2.806 3.413c.293.824.468 1.678.468 2.59 0 .912-.175 1.795-.468 2.59a7.14 7.14 0 002.806 3.413 11.496 11.496 0 001.695-6.033 11.29 11.29 0 00-1.695-5.973z"/></svg>