<svg xmlns="http://www.w3.org/2000/svg" fill="none" viewBox="0 0 100 30"><path fill-rule="evenodd" d="M39.742.975c-1.053 1.627-1.723 5.093-1.466 7.587.132 1.282.83 4.01 1.55 6.062 1.615 4.605 1.969 7.201 1.286 9.44-1.143 3.751-4.94 4.406-6.639 1.144-.63-1.212-.764-2.272-.626-4.976.188-3.687.926-5.034 3.41-6.224 2.757-1.321.246-2.682-2.687-1.456-3.639 1.52-5.565 5.144-5.183 9.752.363 4.373 3.578 7.353 7.91 7.332 2.172-.01 5.094-1.172 6.264-2.49 2.548-2.87 2.719-6.828.57-13.25-1.704-5.095-1.883-7.103-.885-9.932.824-2.335.822-2.435-.032-3.29-1.012-1.011-2.717-.864-3.471.301zM2.822 11.107c-1.637.472-2.218 1.414-1.445 2.345.387.466.868.52 1.929.216 4.464-1.28 6.473.075 6.837 4.611.418 5.209-.55 8.219-2.865 8.912-1.55.464-3.218-1.466-3.218-3.724 0-2.185 1.007-3.323 3.547-4.007 1.344-.361 1.782-.687 1.67-1.24-.123-.6-.617-.739-2.446-.691-4.123.107-6.83 2.51-6.83 6.063 0 5.011 5.584 7.646 10.718 5.058 2.947-1.487 3.747-3.4 3.747-8.967 0-5.128-.751-6.998-3.336-8.301-1.687-.851-5.834-.989-8.308-.275zm17.843.227c-2.124 1.073-2.934 2.57-3.398 6.281-.53 4.239-.255 10.433.503 11.347.312.376 1.017.684 1.566.684 1.898 0 2.2-1.024 2.436-8.243.278-8.549.605-8.986 5.906-7.913 1.613.326 1.692.29 1.55-.706-.083-.577-.649-1.3-1.257-1.607-1.501-.757-5.676-.667-7.306.157zm32.987-.022c-4.624 2.003-6.69 6.92-5.144 12.241.85 2.922 3.33 5.436 5.826 5.904 2.252.423 6.259-.057 7.552-.905.91-.596 1.003-.85.592-1.62-.358-.668-.744-.834-1.447-.62-5.711 1.736-8.261-.242-8.261-6.408 0-2.538.208-3.662.883-4.768 2.374-3.894 6.36-2.407 5.23 1.95-.353 1.367-1.971 2.501-4.119 2.89-.484.088-.947.506-1.028.93-.123.64.19.77 1.867.77 5.584 0 8.871-4.184 6.655-8.47-1.242-2.402-5.348-3.305-8.606-1.894zm15.62.22c-3.219 1.594-3.86 3.188-4.04 10.044-.128 4.858-.03 6.068.563 6.974.777 1.184 2.498 1.471 3.254.542.248-.304.523-3.454.611-6.999.128-5.094.318-6.684.906-7.581 1.356-2.07 4.373-1.78 5.543.53.363.719.558 3.18.562 7.118.005 5.265.108 6.112.816 6.753 1.017.92 2.026.933 2.923.037.562-.562.695-1.818.695-6.548 0-5.188-.113-6.076-.996-7.828-1.835-3.638-6.81-5.035-10.838-3.041zm18.458.07c-2.955 1.49-4.166 3.96-4.18 8.524-.008 3.073.15 3.815 1.202 5.603 1.939 3.297 6.313 4.814 9.94 3.447 5.108-1.926 7.02-10.207 3.548-15.366-2.07-3.076-6.813-4.072-10.51-2.208zm5.918 2.122c2.44 1.919 2.485 10.61.066 12.712-.63.548-1.522.996-1.982.996-2.63 0-4.418-4.474-3.789-9.485.254-2.025.614-2.906 1.582-3.874 1.486-1.486 2.562-1.577 4.123-.349z" clip-rule="evenodd"/></svg>