<svg xmlns="http://www.w3.org/2000/svg" fill="none" viewBox="0 0 100 21"><path d="M0 3.37h16.85S20.2 3.207 20.2 6.276v3.396s.025.504-.21 1.03c-.188.42-.57.784-1.111 1.098 0 0 .26.336 1.055 1.433.268.37.266.92.266 1.399v2.691s.164 3.052-2.668 3.052h-9.37V9.586h5.034v5.19s.105.97 1.197.97c.75 0 .762-.5.762-.735 0-.4-.333-.708-.946-1.039v-3.635s-.013-.558.403-.785c.446-.243.588-.505.588-.798 0-.19-.151-.525-.614-.525H3.73L0 3.37zm21.221 13.584c0 3.041 2.671 3.422 2.671 3.422H32.4V3.37h-2.183L26.846 0l-3.369 3.37H21.22l.001 13.584zm6.77-1.271h-2.288V6.936h2.288v8.747zm1.204-12.314l-2.348 2.348-2.348-2.348 2.348-2.348 2.348 2.348zM95.36 15.67h-11.41s-.811-.019-.811-1.186c0-.732.251-.92.617-1.249.366-.327.732-.731.732-1.664V5.807s.1-2.452-2.383-2.452h-8.72v12.332l-3.909.007c-.58 0-.746-.166-.746-.746 0-.682.705-.622.705-.622h2.904v-4.76h-2.73c-.498 0-.796-.08-.796-.706 0-.686.72-.62.72-.62h2.805V3.365l-8.04.004v12.29h-3.895V3.369H55.93v12.286h-3.724c-.58 0-.746-.123-.746-.703 0-.682.704-.621.704-.621h2.777V9.569h-2.603c-.497 0-.795-.08-.795-.706 0-.685.72-.62.72-.62h2.676V3.37h-7.913v6.198h-1.693V3.37h-4.51v11.044s.131 1.246-.786 1.246h-1.45s-.661.086-.661-.99V9.195s-.075-.952.827-.952h.47s.857.086.857-.91V3.369H35.97s-2.527.34-2.527 3.216v11.026s.215 2.765 2.62 2.765h9.267v-6.023h1.694v3.581s-.164 2.442 2.943 2.442h9.621l1.01-.005h1.063c1.08 0 1.563-.776 1.829-1.086.266-.31.59-.857.59-.857l.032.005h.472s.325.546.59.856c.267.31.75 1.087 1.83 1.087h10.86V8.24h1.3s.643 0 .643.605c0 0 .025.454-.397.63 0 0-.461.168-.461.63v7.603s-.138 2.715 2.674 2.715H100l-4.641-4.754z"/></svg>