<svg xmlns="http://www.w3.org/2000/svg" fill="none" viewBox="0 0 90 32"><path d="M21.84 30.81l-8.558-11.802c3.376-1.098 5.82-4.41 5.82-8.216 0-5.252-4.488-9.479-9.961-9.479H0L.018 30.81h4.616V19.392h3.613l7.918 11.418h5.674zM4.615 15.55V5.905H9.25c2.737 0 5.09 2.031 5.09 4.776 0 2.635-2.317 4.886-5.09 4.867H4.616zM42.474 5.87V1.313H24.959V30.81h17.515V26.2h-12.9v-8.162h11.13v-4.611h-11.13V5.87h12.9zM55.775 31.304c5.966 0 10.49-3.366 10.49-8.6 0-4.648-3.612-6.898-8.265-8.948-3.576-1.537-6.294-2.36-6.294-4.666 0-2.086 2.153-3.77 4.853-3.77 2.135 0 4.16 1.117 5.072 3.111l3.43-2.378c-1.204-3.24-4.342-5.27-8.538-5.27-5.291 0-9.47 3.367-9.47 8.197 0 4.63 3.832 6.423 7.28 7.96 3.43 1.482 7.298 3.13 7.298 5.856 0 2.25-2.5 3.842-5.802 3.842-2.828 0-5.273-1.317-6.586-3.623l-3.65 2.617c1.68 3.403 5.347 5.672 10.182 5.672zM78.727 31.304c5.966 0 10.49-3.366 10.49-8.6 0-4.648-3.612-6.898-8.264-8.948-3.577-1.537-6.295-2.36-6.295-4.666 0-2.086 2.153-3.77 4.853-3.77 2.135 0 4.16 1.117 5.072 3.111l3.43-2.378c-1.204-3.24-4.342-5.27-8.538-5.27-5.291 0-9.47 3.367-9.47 8.197 0 4.63 3.832 6.423 7.28 7.96 3.43 1.482 7.298 3.13 7.298 5.856 0 2.25-2.5 3.842-5.802 3.842-2.828 0-5.272-1.317-6.586-3.623l-3.649 2.617c1.678 3.403 5.346 5.672 10.18 5.672z"/><path fill="#252634" d="M22.622 30.028l-8.557-11.803c3.375-1.098 5.82-4.41 5.82-8.216 0-5.251-4.488-9.478-9.962-9.478H.783L.8 30.028h4.616V18.61h3.612l7.919 11.418h5.674zM5.399 14.767V5.124h4.634c2.737 0 5.09 2.03 5.09 4.775 0 2.635-2.317 4.886-5.09 4.868H5.399zM43.257 5.087V.531H25.742v29.497h17.515v-4.611h-12.9v-8.162h11.13v-4.61h-11.13V5.086h12.9zM56.557 30.522c5.966 0 10.491-3.367 10.491-8.6 0-4.648-3.613-6.899-8.265-8.948-3.576-1.537-6.294-2.36-6.294-4.667 0-2.086 2.152-3.769 4.853-3.769 2.134 0 4.16 1.116 5.072 3.11l3.43-2.378C64.64 2.03 61.502 0 57.305 0c-5.29 0-9.469 3.367-9.469 8.198 0 4.63 3.831 6.422 7.28 7.96 3.43 1.482 7.298 3.128 7.298 5.855 0 2.25-2.5 3.843-5.802 3.843-2.828 0-5.273-1.318-6.587-3.623l-3.648 2.616c1.678 3.404 5.345 5.673 10.18 5.673zM79.51 30.522c5.965 0 10.49-3.367 10.49-8.6 0-4.648-3.612-6.899-8.265-8.948-3.576-1.537-6.294-2.36-6.294-4.667 0-2.086 2.153-3.769 4.853-3.769 2.134 0 4.16 1.116 5.072 3.11l3.43-2.378C87.592 2.03 84.454 0 80.257 0c-5.29 0-9.469 3.367-9.469 8.198 0 4.63 3.832 6.422 7.28 7.96 3.43 1.482 7.298 3.128 7.298 5.855 0 2.25-2.5 3.843-5.802 3.843-2.828 0-5.273-1.318-6.586-3.623l-3.65 2.616c1.68 3.404 5.346 5.673 10.181 5.673z"/></svg>