<svg xmlns="http://www.w3.org/2000/svg" fill="none" viewBox="0 0 100 16"><defs/><g clip-path="url(#clip0)"><path fill="#252634" d="M100 6.92c-.113.826-.113 1.627-.326 2.378a7.076 7.076 0 01-2.365 3.591c-1.026.826-2.14 1.452-3.441 1.665-1.301.213-2.615.5-3.917.438-2.853-.163-5.456-1.039-7.346-3.391-.588-.739-1.05-1.527-1.163-2.478-.076-.663-.238-1.327-.213-1.99.062-2.378 1.289-4.142 3.203-5.381 1.001-.65 2.178-1.026 3.292-1.49 0 0 3.478-.362 5.168-.1a.241.241 0 00.125.038l.263.038c.012 0 .025 0 .037.012 1.465.25 2.754.914 3.942 1.802.363.276.701.588 1.039.889.088.087.15.2.238.325-.726.376-1.39.751-2.078 1.051-.212.088-.538.025-.763-.087-.913-.463-1.752-1.114-2.715-1.427-1.277-.4-2.603-.525-3.968-.213-1.138.25-2.177.601-3.103 1.302-1.026.776-1.664 1.752-1.764 3.09-.113 1.565.275 2.904 1.514 3.918 1 .826 2.127 1.364 3.454 1.439.588.037 1.176.238 1.752.175 1.74-.175 3.479-.425 4.692-1.915.288-.35.526-.75.864-1.238h-5.294V6.92H100zM16.769 11.225c-.538 1.815-1.915 2.616-3.592 3.166-2.34.764-4.743.576-7.095.388-2.04-.175-4.03-.813-5.732-2.09l-.012-.012L0 12.35c.363-.463.726-.926 1.076-1.401.225-.313.513-.513.876-.263 2.09 1.452 4.493 1.74 6.92 1.877.539.025 1.102-.087 1.652-.2.751-.15 1.515-.263 2.215-.55.626-.264 1.164-.764 1.177-1.54.012-.713-.488-1.151-1.077-1.364a8.822 8.822 0 00-2.114-.5 71.75 71.75 0 00-4.63-.263c-1.277-.038-2.49-.3-3.655-.789C1.29 6.883.438 5.606.55 4.355c.113-1.214.614-2.253 1.69-2.916A8.404 8.404 0 016.495.138h.087c.4-.025 2.078-.125 2.866-.05.025.025.05.037.088.037.876.113 1.764.138 2.615.313 1.264.263 2.478.7 3.58 1.427.3.2.262.35.074.575-.125.15-.262.3-.4.45-1.026 1.077-1.001 1.027-2.39.501-.914-.338-1.89-.55-2.854-.725-.888-.15-1.802-.276-2.69-.2-1.101.1-2.278.05-3.241.7-.326.213-.663.663-.689 1.014-.025.425.288.863.826.976.751.15 1.502.363 2.265.45 1.327.138 2.678.138 4.005.313 1.814.25 3.68.388 5.18 1.652 1.052.864 1.315 2.415.952 3.654zM18.058.275h3.016v9.198c0 1.39.963 2.515 2.352 2.74 1.177.188 2.366.464 3.542.439 1.276-.025 2.59-.15 3.792-.714.625-.3 1.576-1.264 1.564-2.252-.05-2.89-.013-5.782-.013-8.66V.238c.914 0 1.802-.013 2.678.025.113 0 .313.275.313.425.013 3.041.063 6.082 0 9.11-.05 2.216-1.339 3.617-3.291 4.468-1.076.463-2.177.788-3.366.813-.864.025-1.727.226-2.578.176-2.153-.138-4.293-.438-6.095-1.777-.863-.639-1.576-1.427-1.714-2.566-.088-.688-.2-1.376-.2-2.052-.013-2.853 0-5.669 0-8.585zM70.492.713l-.751 1.364-6.87 12.464 2.803-5.143c1.226-2.24 2.465-4.48 3.691-6.72.113-.2.213-.388.313-.588.226-.426.45-.839.701-1.239.025-.05.063-.1.113-.138zM40.495.013V12.35h11.576v2.616c-.188.012-.375.037-.563.037-4.443 0-8.885-.012-13.34.013-.563 0-.764-.15-.764-.738.026-4.505.026-9.023 0-13.528 0-.588.2-.776.764-.738.738.025 1.49 0 2.328 0zM70.792.613l-.763 1.39-6.97 12.639 2.84-5.219c1.251-2.277 2.503-4.542 3.742-6.82.112-.2.212-.4.325-.6.225-.426.45-.852.713-1.252a.547.547 0 01.113-.138z"/><path fill="#252634" d="M70.792.613l-.763 1.39h-.063c.225-.426.45-.852.714-1.252.024-.05.062-.088.112-.138zM57.277 12.326v.013c-.476.876-.976 1.727-1.527 2.69C52.922 9.961 50.17 5.056 47.366.025c1.114 0 2.127-.038 3.128.038.213.012.438.413.576.675 1.464 2.653 2.903 5.306 4.342 7.96.601 1.1 1.164 2.214 1.752 3.316.05.112.125.25.113.312z"/><path fill="#77643C" d="M71.28.037l-.137.25c-.05.038-.088.088-.126.138a16.95 16.95 0 00-.75 1.314c-.113.213-.226.426-.338.626-1.302 2.378-2.616 4.755-3.917 7.146-.976 1.777-1.94 3.566-2.979 5.468l-7.295.075c.55-.963 1.038-1.827 1.526-2.69v-.013L64.197.05h7.083V.037z"/><path fill="#252634" d="M82.73 15.017c-1.026 0-1.977.025-2.915-.025-.2-.013-.438-.276-.563-.488-1.352-2.453-2.69-4.93-4.03-7.396-.8-1.464-1.614-2.928-2.478-4.505-.375.626-.763 1.214-1.1 1.827-1.565 2.84-3.13 5.681-4.694 8.534-.3.551-.575 1.127-.888 1.665-.1.163-.3.363-.463.375-.976.038-1.952.013-3.054.013l7.284-13.29.876-1.452.137-.25h1.114c.7-.013 1.414.012 2.115 0 .363 0 .55.088.75.45 1.728 3.204 3.492 6.395 5.257 9.586.826 1.49 1.651 2.966 2.477 4.443.075.125.1.288.176.513z"/></g><defs><clipPath id="clip0"><path fill="#fff" d="M0 0h100v15.242H0z"/></clipPath></defs></svg>