<svg xmlns="http://www.w3.org/2000/svg" fill="none" viewBox="0 0 112 25"><path d="M25.003 17.206h-4.655c-.557 0-1.01-.453-1.01-1.012V0h4.654c.558 0 1.01.453 1.01 1.012v16.194zM41.372.01H26.538v14.787c0 1.324 1.073 2.4 2.395 2.4h9.175v1.554h-9.175a2.398 2.398 0 00-2.395 2.399v3.274h14.834a2.398 2.398 0 002.395-2.4V2.41A2.396 2.396 0 0041.371.01zM38.11 11.53h-5.913V5.679h5.913v5.85zM62.791 2.403V17.28H59.52a2.402 2.402 0 01-2.4-2.403V5.675h-5.912v11.602h-3.266a2.4 2.4 0 01-2.399-2.403V.002h14.85a2.4 2.4 0 012.398 2.401zM81.672 2.403V17.28h-14.85a2.402 2.402 0 01-2.398-2.403V.002h3.266a2.402 2.402 0 012.399 2.403V11.6h5.919V.002h3.266a2.4 2.4 0 012.398 2.401zM112 2.403V17.28h-3.272a2.403 2.403 0 01-2.399-2.403V5.675h-5.913v11.602H97.15a2.4 2.4 0 01-2.398-2.403v-9.2h-5.92v11.603h-3.265a2.402 2.402 0 01-2.399-2.403V.002h26.431A2.401 2.401 0 01112 2.403zM17.18 13.934v3.272H2.399A2.4 2.4 0 010 14.806V.001h3.272A2.402 2.402 0 015.67 2.405v9.129h9.112a2.399 2.399 0 012.397 2.4z"/></svg>