<svg xmlns="http://www.w3.org/2000/svg" fill="none" viewBox="0 0 49 50"><path fill-rule="evenodd" d="M35.318.26c-.149.18-.305.915-.347 1.633-.073 1.262-.108 1.32-1.011 1.679l-.935.372-.944-.922c-.765-.747-1.063-.891-1.575-.763-.916.23-.846 1.25.157 2.285l.787.813-1.017 1.017-1.017 1.017-.975-.882c-1.047-.945-1.854-1.008-2.122-.166-.175.551.117 1.133.967 1.928l.64.598L26.9 9.915l-1.026 1.045-.939-.847c-.944-.853-1.327-.993-1.812-.66-.66.452-.569 1.063.304 2.029l.887.982-.568.604c-.312.333-.631.603-.709.6-.077-.001-.514-.332-.97-.734-.456-.402-.97-.73-1.143-.73-1.266 0-1.443 1.038-.354 2.08.404.388.735.827.735.976 0 .15-.441.703-.98 1.229l-.98.956-.985-.962c-.79-.771-1.067-.912-1.392-.707-.97.612-.961 1.023.046 2.055.898.919.937 1.015.559 1.393-.378.378-.475.344-1.399-.491-.546-.494-1.102-.897-1.235-.897-.132 0-1.247.992-2.477 2.204-1.23 1.212-2.312 2.204-2.405 2.204-.094 0-.487-.331-.874-.735-.387-.404-.933-.735-1.213-.735-.622 0-6.011 5.32-6.011 5.934 0 .229.348.813.774 1.298l.774.881-1.753 1.765C.594 31.821 0 32.61 0 32.984c0 .694 12.521 16.715 13.287 17 .444.166 1.642-.932 8.676-7.955 4.489-4.481 8.227-8.353 8.306-8.605.102-.319-.137-.746-.787-1.412-.86-.88-.902-.987-.537-1.352.365-.365.44-.355.954.124.743.693 1.394.657 1.736-.095.241-.528.2-.7-.296-1.228l-.576-.613.953-.976c1.04-1.066 1.366-1.171 1.843-.596.175.211.596.347.948.306.792-.092.968-.938.382-1.832-.397-.605-.39-.65.198-1.238l.61-.61.733.542c.603.446.825.493 1.252.264.662-.354.672-1.27.022-1.859-.495-.448-.493-.453.538-1.504l1.036-1.055.518.487c.676.635 1.5.62 1.85-.032.228-.427.181-.649-.266-1.253l-.542-.735.97-.97.97-.97.815.496c1.45.881 2.361-.344 1.186-1.594-.467-.498-.49-.638-.215-1.302.3-.725.35-.744 1.963-.744 1.806 0 2.301-.291 2.162-1.272-.072-.508-.24-.577-1.672-.687l-1.592-.123-.073-1.01c-.07-.962-.023-1.04.998-1.639 1.36-.796 1.727-1.242 1.532-1.857-.259-.815-1.04-.87-2.127-.15-.94.622-1 .63-1.324.205-.677-.89-.654-1.284.12-2.059.76-.76.873-1.094.603-1.796-.238-.62-1.11-.449-1.976.39-.718.696-.867.747-1.43.49l-.627-.286.622-.914c.724-1.066.76-1.362.237-1.886-.624-.624-1.036-.455-1.934.796-.831 1.157-.87 1.178-1.898 1.04l-1.049-.14-.122-1.346c-.112-1.23-.178-1.353-.756-1.42-.348-.041-.754.072-.903.252zm3.804 4.97c3.18.944 4.922 4.437 3.858 7.736-.396 1.227-.965 1.853-8.162 8.982L27.08 29.61l-4.234-4.234-4.235-4.235 7.53-7.53c4.14-4.142 7.756-7.687 8.033-7.878 1.254-.866 3.097-1.053 4.947-.503zM21.394 26.79c3.453 3.377 6.278 6.243 6.278 6.369 0 .126-3.175 3.402-7.055 7.28l-7.055 7.052-5.658-7.176-5.659-7.175 6.284-6.306c3.456-3.469 6.352-6.279 6.436-6.245.084.034 2.977 2.825 6.43 6.201zM6.813 25.615c-1.382 1.346-1.856 1.677-2.108 1.468-.257-.214.045-.642 1.457-2.063 1.483-1.493 1.836-1.74 2.108-1.468.27.27.026.617-1.457 2.063zm4.745-.384c-.575.576-.288 1.32 1 2.592 1.285 1.269 2.012 1.547 2.576.983.54-.54.304-1.058-1.122-2.468-1.433-1.418-1.922-1.639-2.454-1.107zm-2.204 2.204c-.531.532-.31 1.021 1.107 2.454 1.41 1.426 1.929 1.661 2.469 1.121.568-.568.28-1.261-1.059-2.559-1.357-1.315-1.97-1.562-2.517-1.016zm-2.252 2.4c-.345.644-.09 1.089 1.44 2.52 1.279 1.196 1.686 1.357 2.184.86.575-.577.288-1.32-1-2.593-1.382-1.365-2.186-1.606-2.624-.787zm7.948 1.181c-2.73 1.277-3.718 5.079-1.906 7.33 2.156 2.68 5.26 2.972 7.523.71 2.313-2.313 1.963-5.887-.76-7.752-1.175-.805-3.46-.94-4.857-.288zm3.537 1.867c.996.516 1.493 1.421 1.493 2.722 0 .965-.125 1.26-.832 1.968-.673.673-1.023.833-1.826.833-1.34 0-2.151-.412-2.765-1.405-1.535-2.484 1.315-5.47 3.93-4.118z" clip-rule="evenodd"/></svg>