<svg xmlns="http://www.w3.org/2000/svg" fill="none" viewBox="0 0 31 30"><path fill-rule="evenodd" d="M14.545 5.006c-1.249.064-2.014.135-2.898.267-3.716.556-6.909 1.976-8.208 3.65a2.567 2.567 0 00-.395.768c-.046.16-.051.288-.037.982.023 1.078.111 1.559.39 2.123.432.874 1.321 1.26 2.604 1.13 1.11-.112 2.153-.397 2.673-.729.494-.315.727-.622.88-1.164.052-.182.066-.36.083-1.062.02-.792.025-.853.092-.989.324-.66 1.64-1.064 3.954-1.214.662-.043 2.966-.044 3.62 0 2.019.131 3.186.418 3.734.917.3.274.302.283.326 1.255.018.713.03.881.086 1.087.099.367.259.644.507.878.493.463 1.186.73 2.463.946.666.112 1.456.119 1.845.015.624-.167 1.08-.53 1.342-1.07.275-.566.365-1.05.388-2.09.019-.865.003-.993-.167-1.346-.14-.29-.28-.483-.575-.791-1.04-1.086-2.826-2.029-5.093-2.69-1.45-.423-3.145-.713-4.841-.828-.501-.034-2.385-.064-2.773-.045zm-.262 6.265c-1.03.041-2.063.15-2.107.221-.01.017-.028.149-.04.293-.1 1.314-.667 2.467-1.565 3.187-.626.502-1.378.852-2.418 1.124-.586.154-.878.306-1.192.621-.277.278-.445.558-.527.878-.04.156-.415 2.67-.65 4.359-.076.543-.062.874.054 1.273a2.47 2.47 0 001.722 1.701l.248.072h15.385l.249-.072c1.04-.3 1.733-1.16 1.82-2.262.018-.23-.018-.527-.313-2.571-.184-1.272-.356-2.397-.382-2.5-.082-.32-.25-.6-.527-.878-.311-.313-.6-.462-1.198-.622a7.526 7.526 0 01-1.435-.515c-1.543-.75-2.322-1.894-2.536-3.722a4.467 4.467 0 00-.054-.387 4.008 4.008 0 00-.355-.06c-1.027-.147-2.661-.202-4.18-.14zm1.89 4.418a3.21 3.21 0 012.263 1.878c.177.433.238.793.22 1.293-.019.515-.088.799-.302 1.235-.403.822-1.076 1.383-1.992 1.66-.263.08-.32.085-.861.085-.542 0-.598-.005-.862-.085-.582-.176-1.045-.453-1.432-.859a3.19 3.19 0 01-.781-1.37c-.093-.348-.114-.968-.045-1.333a3.123 3.123 0 012.043-2.383 3.24 3.24 0 011.749-.12z" clip-rule="evenodd"/></svg>