<svg xmlns="http://www.w3.org/2000/svg" fill="none" viewBox="0 0 55 50"><path fill-rule="evenodd" d="M25.78.32c-2.848.8-5.542 2.636-8.543 5.826-2.055 2.185-2.382 2.832-1.752 3.462.507.507 1.047.396 2.933-.6 3.439-1.816 6.504-2.217 8.611-1.127 1.062.548 2.608 2.138 2.999 3.082.297.717-.006 1.041-14.862 15.907C1.089 40.957 0 42.112 0 42.965c0 .809.363 1.281 3.059 3.976C5.767 49.651 6.223 50 7.046 50c.865 0 1.898-.97 15.15-14.213 7.996-7.99 14.431-14.213 14.7-14.213.523 0 3.441 2.692 3.441 3.176 0 .166-.304.664-.676 1.107-.373.442-.677.956-.677 1.141 0 .698 3.061 5.18 3.705 5.424 1.162.442 2.253-.365 7.056-5.218 5.975-6.035 5.98-6.07 1.388-8.568-2.056-1.118-3.033-1.366-3.35-.852-.344.555-1.267.238-2.433-.837-1.454-1.34-1.684-1.945-1.087-2.856.255-.388.387-.95.303-1.284-.082-.327-2.56-2.975-5.506-5.883-4.142-4.09-5.707-5.459-6.91-6.043-1.905-.926-4.314-1.138-6.37-.56zm5.488 2.643c.6.296 3.22 2.654 5.871 5.282l4.788 4.747-.15 1.262c-.192 1.623.508 3.053 2.239 4.577 1.463 1.288 2.724 1.727 3.95 1.376.711-.204 1.108-.105 2.448.609l1.6.852-4.276 4.282-4.274 4.28-.886-1.404c-.998-1.583-1.02-1.706-.48-2.65.52-.91.502-2.17-.042-2.985-1.39-2.079-3.72-3.783-5.173-3.783-1.186 0-1.829.347-3.321 1.79l-1.226 1.185-2.361-2.372-2.361-2.373 2.572-2.561c1.896-1.89 2.57-2.74 2.569-3.243-.004-1.048-1.434-3.306-2.966-4.683-1.852-1.665-3.492-2.194-6.3-2.031-2.134.123-2.156.118-1.524-.366 1.206-.924 3.744-2.157 4.9-2.38a6.98 6.98 0 014.403.59zm-1.694 22.192l-1.146 1.147-2.3-2.288-2.3-2.288 1.142-1.164L26.11 19.4l2.305 2.305 2.305 2.305-1.146 1.146zM16.992 37.746c-5.398 5.4-9.934 9.817-10.08 9.817-.354 0-4.474-4.106-4.474-4.459 0-.151 4.414-4.691 9.81-10.088l9.81-9.813 2.374 2.363 2.375 2.363-9.815 9.817z" clip-rule="evenodd"/></svg>