<svg xmlns="http://www.w3.org/2000/svg" fill="none" viewBox="0 0 50 50"><path fill-rule="evenodd" d="M33.76.522c-1.73 1.165-1.876 2.978-.375 4.625l.495.542-14.134 14.134L5.612 33.957l-.726-.61c-1.381-1.163-3.037-1.129-4.2.086C.1 34.043 0 34.34 0 35.44v1.292l6.646 6.634L13.292 50h1.183c1.335 0 2.065-.401 2.594-1.425.647-1.25.416-2.544-.665-3.73l-.486-.534h.59c1.011 0 1.489-.563 1.745-2.055l.237-1.383 1.382-.237c1.518-.26 2.055-.733 2.055-1.807 0-1.4.34-1.794 1.66-1.92.671-.065 1.37-.267 1.552-.45.183-.182.416-.917.518-1.633l.187-1.301 1.385-.274c.762-.15 1.508-.396 1.657-.544.15-.148.378-.875.509-1.616l.236-1.346 1.416-.244c1.565-.269 2.012-.751 2.018-2.182.005-.959.543-1.497 1.502-1.502 1.431-.006 1.913-.453 2.182-2.018l.243-1.416 1.382-.274c.76-.15 1.505-.395 1.654-.543.149-.148.378-.878.508-1.623l.237-1.352 1.382-.238c1.486-.254 2.055-.734 2.055-1.729v-.572l.838.736c.64.562 1.063.736 1.79.736 1.923 0 3.062-1.117 3.062-3.004v-1.124l-6.342-6.369C40.071 3.524 36.93.507 36.578.32c-.923-.487-1.9-.417-2.819.202zm8.01 7.573c3.428 3.42 6.233 6.385 6.233 6.59 0 .476-.462.942-.935.942-.384 0-12.814-12.282-12.814-12.661 0-.313.737-1.088 1.034-1.088.137 0 3.054 2.798 6.482 6.217zm-2.723 2.732l3.483 3.497-.138.995c-.147 1.066-.047 1.006-2.282 1.372-1.008.165-1.236.522-1.468 2.294l-.144 1.105-1.233.167c-1.775.24-2.012.425-2.187 1.712-.258 1.904-.239 1.881-1.758 2.053-.766.087-1.5.287-1.63.445-.129.158-.31.894-.402 1.637-.182 1.473-.02 1.352-2.32 1.729-1.008.165-1.236.521-1.468 2.298l-.145 1.11-1.282.161c-1.682.21-1.98.47-2.162 1.886-.084.652-.248 1.306-.364 1.455-.117.148-.795.343-1.509.432-1.48.185-1.664.397-1.903 2.2l-.16 1.206-1.453.255c-1.52.267-2.047.674-2.047 1.579 0 .285-.064.84-.143 1.232-.124.619-.272.735-1.113.87l-.97.155-3.63-3.624-3.628-3.623 14.046-14.047C28.761 13.652 35.19 7.33 35.322 7.33c.132 0 1.808 1.573 3.724 3.496zM9.294 40.571c3.428 3.42 6.233 6.385 6.233 6.59 0 .476-.463.943-.935.943-.385 0-12.814-12.282-12.814-12.662 0-.313.737-1.087 1.034-1.087.137 0 3.054 2.797 6.482 6.216z" clip-rule="evenodd"/></svg>