<svg viewBox="0 0 72 68" fill="none" xmlns="http://www.w3.org/2000/svg">
<path d="M53.7749 6.88783L53.7749 6.88778C52.4463 5.19862 51.0952 4.04045 49.686 3.382C48.2856 2.72767 46.7996 2.55329 45.1671 2.87612C41.8636 3.52935 37.9467 6.22022 33.0528 11.1756L32.697 10.8243L33.0527 11.1756C31.2464 13.0045 29.8586 14.4403 28.8333 15.5774C27.8017 16.7215 27.1626 17.5358 26.8304 18.1267C26.4859 18.7392 26.5644 18.9398 26.6094 19.0088C26.6468 19.0662 26.73 19.1467 26.9144 19.2383C27.0977 19.3293 27.3463 19.4144 27.6716 19.4996L53.7749 6.88783ZM53.7749 6.88783C54.6346 7.98058 55.4211 9.31467 55.9913 10.5796C56.5687 11.8606 56.8953 13.0072 56.8953 13.7387C56.8953 13.8592 56.8545 14.0652 56.738 14.3708C56.6247 14.6681 56.4529 15.0263 56.2234 15.4398C55.7648 16.2663 55.0945 17.2804 54.2577 18.4159C52.5854 20.6853 50.2727 23.4062 47.7251 26.0257L48.0836 26.3743M53.7749 6.88783L48.0836 26.3743M48.0836 26.3743L47.7251 26.0257C45.5784 28.2332 43.9289 29.9096 42.6599 31.127C41.3807 32.3545 40.5216 33.0821 39.9478 33.424C39.6559 33.5979 39.5038 33.6307 39.4461 33.6309L48.0836 26.3743ZM39.9847 14.5421L40.3436 14.8903C38.5771 16.7109 37.2598 18.0752 36.3165 19.1487C35.3648 20.2318 34.8368 20.9725 34.6031 21.5477C34.4902 21.8255 34.4528 22.0491 34.4622 22.2441C34.4715 22.438 34.5284 22.6335 34.6462 22.8538C34.8961 23.3212 35.3761 23.8304 36.1172 24.5834L39.9847 14.5421ZM39.9847 14.5421L40.3436 14.8902C42.324 12.8489 43.9566 10.9842 44.9902 9.62176M39.9847 14.5421L44.9902 9.62176M23.5148 34.8191L23.5149 34.8191C24.1316 35.8172 25.5379 36.0751 26.8226 35.67C27.4472 35.473 27.9667 35.1364 28.2749 34.7344C28.5704 34.349 28.6803 33.8988 28.5079 33.381L28.5079 33.381C28.1964 32.4451 27.0905 31.6621 25.8183 31.3489C25.198 31.1962 24.5882 31.1701 24.0869 31.2747C23.5868 31.3789 23.2338 31.6023 23.0386 31.9178L23.5148 34.8191ZM23.5148 34.8191C23.1961 34.3034 22.987 33.6961 22.9098 33.1415M23.5148 34.8191L22.9098 33.1415M16.1444 61.1765C17.7047 60.5777 18.9608 58.9058 19.6449 57.1663C19.9921 56.2836 20.2066 55.3494 20.237 54.4711C20.2672 53.597 20.1158 52.7425 19.6912 52.0553L19.6912 52.0552C18.6829 50.4239 17.0122 49.2425 15.2417 48.6673C13.4758 48.0936 11.5404 48.1021 10.0153 48.9548L10.0151 48.9549C8.36581 49.8782 7.47364 51.2959 7.19162 52.8506C6.91223 54.3908 7.23347 56.0437 7.95841 57.4818C9.39754 60.3365 12.5682 62.5492 16.1444 61.1765ZM16.1444 61.1765L15.9678 60.7163L16.1445 61.1765C16.1444 61.1765 16.1444 61.1765 16.1444 61.1765ZM44.9902 9.62176C45.5022 8.94695 45.8874 8.36941 46.0884 7.94423M44.9902 9.62176L46.0884 7.94423M46.0884 7.94423C46.1803 7.74979 46.2754 7.50451 46.2624 7.27019M46.0884 7.94423L46.2624 7.27019M46.2624 7.27019C46.255 7.13653 46.2089 6.95694 46.0551 6.8163M46.2624 7.27019L46.0551 6.8163M46.0551 6.8163C45.9042 6.67833 45.7248 6.64693 45.5957 6.64693M46.0551 6.8163L45.5957 6.64693M45.5957 6.64693C45.3694 6.64693 45.1312 6.73855 44.9293 6.83496M45.5957 6.64693L44.9293 6.83496M44.9293 6.83496C44.7097 6.93975 44.4586 7.08766 44.1851 7.26746M44.9293 6.83496L44.1851 7.26746M44.1851 7.26746C43.6368 7.6279 42.961 8.14154 42.2056 8.76553M44.1851 7.26746L42.2056 8.76553M42.2056 8.76553C40.6928 10.0152 38.8304 11.733 36.9796 13.619M42.2056 8.76553L36.9796 13.619M36.9796 13.619C34.5919 16.0517 32.7318 17.6637 31.213 18.5965M36.9796 13.619L31.213 18.5965M31.213 18.5965C29.6967 19.5278 28.591 19.7395 27.672 19.4997L31.213 18.5965ZM20.7152 28.0712C20.1506 28.6353 19.8226 29.4725 19.6602 30.3766C19.496 31.2906 19.4907 32.3287 19.619 33.3568C19.7474 34.3857 20.0118 35.4226 20.4002 36.3348C20.7864 37.2417 21.3086 38.0569 21.9716 38.607C24.7831 40.941 28.2769 39.9293 30.4251 37.7811C32.5733 35.6329 33.585 32.139 31.2508 29.3275C30.7008 28.6646 29.8857 28.1424 28.9788 27.7563C28.0666 27.3679 27.0297 27.1034 26.0007 26.975C24.9727 26.8467 23.9346 26.852 23.0206 27.0162C22.1165 27.1786 21.2793 27.5067 20.7152 28.0712ZM20.7152 28.0712C20.7152 28.0711 20.7153 28.0711 20.7153 28.071L21.0687 28.4247L20.715 28.0713C20.7151 28.0713 20.7151 28.0712 20.7152 28.0712ZM22.9098 33.1415C22.8301 32.5681 22.9022 32.1393 23.0384 31.9182L22.9098 33.1415ZM48.0836 26.3743C39.499 35.2018 38.7688 35.6362 38.7423 31.9402M35.7609 24.9342C32.8605 21.9871 32.9305 21.8127 39.9847 14.5421M27.5453 19.9834C24.8348 19.2734 25.47 18.1416 32.697 10.8243C42.5022 0.896072 48.7297 -0.335413 54.1679 6.57867M20.0303 27.3863C16.1521 31.2645 16.054 35.4649 19.764 38.8216M34.0421 32.812C34.0421 29.1425 28.962 24.2726 25.1321 24.2726M57.0528 31.6677C47.9808 40.5185 45.5474 40.1776 54.2815 31.2785C60.8235 24.612 60.9683 24.2726 57.2769 24.2726M66.9373 28.8451C71.3713 34.263 69.6401 39.0815 59.6418 49.1654M55.1907 41.2721C50.0982 46.2074 49.7183 46.321 46.2807 43.9125M23.0895 35.0819C24.6682 37.6368 29.9024 35.9865 28.9823 33.223C28.2039 30.8846 23.7652 29.7917 22.6131 31.6553M24.7009 54.6316C24.7009 59.0189 18.4734 66.3082 14.726 66.3082C10.0694 66.3082 4.54092 62.6542 3.19734 58.6888M28.4156 59.7382C22.2582 47.8312 38.1912 37.5885 46.8864 47.8639M35.7889 60.1819C31.7629 58.0287 31.3892 51.507 35.1693 49.3912C38.2831 47.649 43.0689 49.6636 44.4654 53.3067M11.5142 57.0058C14.4893 59.475 17.8102 56.872 16.3934 53.1791C15.2398 50.1743 13.1925 50.0591 10.8603 52.8677M36.2903 56.8938C38.8591 59.0267 41.8265 57.8543 41.8265 54.7063C41.8265 51.7312 37.6899 50.5542 35.694 52.9611M35.4046 25.2849L35.4047 25.2851C36.1605 26.0525 36.871 27.1942 37.3947 28.4246C37.9189 29.6564 38.2352 30.9285 38.2424 31.9437C38.2457 32.41 38.26 32.8306 38.3028 33.1843C38.3442 33.5266 38.4182 33.8656 38.578 34.1299C38.6623 34.2692 38.7775 34.3998 38.9344 34.4939C39.0937 34.5893 39.269 34.631 39.4465 34.6309C39.7791 34.6306 40.1227 34.4838 40.4596 34.2831C41.1446 33.875 42.0794 33.0699 43.3523 31.8486C44.6355 30.6175 46.2965 28.9292 48.442 26.7229C51.0166 24.0756 53.3597 21.3202 55.0627 19.0092C55.9136 17.8545 56.6108 16.8025 57.0978 15.925C57.3412 15.4865 57.5366 15.0833 57.6725 14.7269C57.8051 14.3789 57.8953 14.039 57.8953 13.7387C57.8953 12.7889 57.4956 11.4834 56.903 10.1687C56.3031 8.83792 55.476 7.43272 54.5609 6.26956C53.1704 4.50168 51.7037 3.221 50.1093 2.47602C48.5062 1.72693 46.8028 1.5333 44.9731 1.89511C41.352 2.61115 37.2525 5.50011 32.3413 10.4729C30.5341 12.3026 29.1324 13.7524 28.0906 14.9077C27.0553 16.056 26.3499 16.9409 25.9588 17.6365C25.5798 18.3103 25.3991 18.9831 25.7715 19.5547C25.9428 19.8176 26.1982 19.9991 26.4696 20.1339C26.7421 20.2693 27.0664 20.3748 27.4186 20.4671L27.419 20.4671C28.7123 20.8048 30.1076 20.4489 31.7363 19.4486C33.3627 18.4498 35.2921 16.7659 37.6933 14.3194L37.6934 14.3194C39.5246 12.4533 41.3613 10.76 42.8424 9.5365C43.584 8.92394 44.2287 8.43554 44.7344 8.10307C44.7996 8.06022 44.8619 8.02037 44.9212 7.98349C44.7433 8.26631 44.5005 8.61286 44.1936 9.01733C43.1932 10.3359 41.5906 12.1687 39.6259 14.1939C37.8652 16.0086 36.5285 17.3925 35.5653 18.4887C34.6105 19.5753 33.9796 20.4256 33.6766 21.1712C33.5211 21.5538 33.4456 21.923 33.4633 22.292C33.4811 22.6618 33.5911 23.0012 33.7644 23.3253C34.0966 23.9466 34.6955 24.5644 35.4046 25.2849ZM17.3056 25.5141L17.3055 25.5142C15.1957 27.8456 14.2468 31.0426 14.3843 34.1035C14.5218 37.1625 15.7483 40.1486 18.0716 42.0296L18.3862 41.641L18.0716 42.0296C20.5881 44.0672 23.3088 45.0214 26.0149 44.8492C28.7194 44.6771 31.3468 43.3839 33.6873 41.0434C36.0743 38.6564 37.3698 35.8805 37.5012 33.1258C37.6329 30.3658 36.593 27.6732 34.3957 25.4759C32.2159 23.2961 28.9192 22.2377 25.715 22.2418C22.5134 22.2458 19.2993 23.3114 17.3056 25.5141ZM20.0996 38.4509L20.0995 38.4508C18.3249 36.8452 17.5101 35.0871 17.5514 33.3112C17.5931 31.525 18.503 29.6207 20.3838 27.7399C21.212 26.9117 22.183 26.1578 23.074 25.614C23.5194 25.3422 23.937 25.1277 24.3002 24.9826C24.672 24.834 24.9516 24.7726 25.1321 24.7726C26.8627 24.7726 28.972 25.8926 30.6774 27.5272C32.3864 29.1653 33.5421 31.1777 33.5421 32.812C33.5421 39.9462 25.5324 43.3686 20.0996 38.4509ZM54.6384 31.6287L54.6384 31.6287C56.2724 29.9636 57.5155 28.6849 58.3995 27.7066C59.2666 26.747 59.8422 26.0202 60.0765 25.4721C60.1952 25.1945 60.2712 24.8612 60.1382 24.5402C60.0014 24.2099 59.7078 24.0443 59.4459 23.956C59.1814 23.8668 58.8575 23.8243 58.5094 23.8013C58.1551 23.7778 57.7394 23.7726 57.2769 23.7726C55.7997 23.7726 54.0486 24.5299 51.9912 25.9579C49.9197 27.3956 47.4708 29.561 44.5845 32.4841C41.2574 35.853 39.2612 38.0357 38.4159 39.3879C38.2019 39.7301 38.0436 40.0467 37.9616 40.3356C37.8801 40.623 37.8585 40.9409 38.0017 41.2319C38.1486 41.5307 38.416 41.6951 38.6843 41.7829C38.9477 41.869 39.2586 41.8982 39.5877 41.8982C40.353 41.8982 41.4672 42.1576 42.658 42.605C43.8396 43.0489 45.0473 43.6592 45.9938 44.322C46.8459 44.919 47.5574 45.3961 48.2137 45.6712C48.8969 45.9576 49.5454 46.0366 50.2572 45.8256C50.9381 45.6237 51.6343 45.168 52.4524 44.4905C53.2756 43.8088 54.2683 42.8623 55.5387 41.6311C56.9906 40.224 58.2965 39.1342 59.2263 38.5076C59.475 38.34 59.6847 38.2139 59.8548 38.1245C59.8136 38.2088 59.7643 38.3017 59.7064 38.403C59.4848 38.7907 59.1567 39.2686 58.7414 39.8061C57.912 40.8795 56.7615 42.1565 55.4925 43.3725C52.2392 46.4893 50.6678 49.5319 50.6678 52.9595V57.7111V58.9254L51.5228 58.0632L59.9969 49.5175L59.6418 49.1654L59.9969 49.5175C64.9945 44.477 68.0025 40.6821 69.1723 37.4245C69.7634 35.7783 69.8906 34.2562 69.5621 32.7792C69.2349 31.3084 68.4646 29.9218 67.3243 28.5284L64.2215 24.7345L63.876 24.3119L63.4853 24.6931L56.7036 31.3098C54.4431 33.5152 52.604 35.1402 51.2555 36.199C50.6024 36.7119 50.0731 37.0849 49.6723 37.326C49.7951 37.1337 49.9542 36.9049 50.1542 36.6382C50.993 35.5191 52.4607 33.8475 54.6384 31.6287ZM60.2838 37.9548C60.2836 37.9548 60.2822 37.9549 60.2797 37.9549C60.2827 37.9546 60.284 37.9547 60.2838 37.9548ZM66.5503 29.1616L66.5504 29.1618C67.6271 30.4774 68.3031 31.7247 68.5859 32.9963C68.8674 34.2617 68.7683 35.5904 68.2311 37.0866C67.1441 40.1136 64.2874 43.7699 59.2868 48.8134L51.6678 56.4968V52.9595C51.6678 49.8919 53.0544 47.0931 56.1843 44.0945L56.1843 44.0945C57.4841 42.8491 58.6689 41.5354 59.5327 40.4175C59.9639 39.8594 60.3218 39.3414 60.5746 38.8992C60.7009 38.6783 60.8057 38.468 60.8801 38.2751C60.9518 38.0894 61.009 37.8857 61.009 37.6881C61.009 37.459 60.9168 37.1663 60.6112 37.0243C60.3733 36.9138 60.1211 36.9578 59.9573 37.0027C59.6031 37.0998 59.1551 37.3496 58.6675 37.6783C57.6695 38.3509 56.3162 39.4851 54.8428 40.913C53.5669 42.1495 52.6024 43.0679 51.8146 43.7203C51.0218 44.3769 50.4534 44.7244 49.973 44.8668C49.5236 45.0001 49.1143 44.9644 48.6003 44.7489C48.0595 44.5222 47.4343 44.1103 46.5676 43.503L46.5675 43.503C45.5399 42.7833 44.2544 42.1365 43.0096 41.6689C41.774 41.2047 40.5288 40.8982 39.5877 40.8982C39.3038 40.8982 39.1135 40.8711 38.9952 40.8324C38.9367 40.8133 38.9098 40.7963 38.8991 40.7877C38.8962 40.7705 38.8926 40.7181 38.9237 40.6085C38.969 40.4488 39.0729 40.2234 39.2638 39.918C40.038 38.6795 41.9441 36.5808 45.296 33.1867L45.296 33.1867C48.1639 30.2823 50.5631 28.1663 52.5613 26.7795C54.5735 25.3829 56.1137 24.7726 57.2769 24.7726C57.7373 24.7726 58.1245 24.7779 58.4433 24.7991C58.7683 24.8206 58.9876 24.8567 59.1264 24.9035C59.1628 24.9158 59.1878 24.9268 59.2045 24.9353C59.1993 24.963 59.1868 25.0092 59.157 25.079C58.9988 25.4491 58.5422 26.0571 57.6576 27.0361C56.7899 27.9964 55.5617 29.2601 53.9246 30.9283C51.7353 33.159 50.2319 34.8672 49.354 36.0384C48.9203 36.617 48.6161 37.0946 48.4665 37.454C48.3971 37.6208 48.3269 37.8391 48.3557 38.0568C48.372 38.1798 48.4229 38.3227 48.5415 38.4407C48.6593 38.5579 48.8009 38.6077 48.9204 38.6245C49.1339 38.6544 49.3504 38.5905 49.5179 38.5256C49.7029 38.4538 49.9124 38.3461 50.141 38.2108C50.5996 37.9393 51.1812 37.5288 51.8731 36.9855C53.2594 35.8971 55.1264 34.2457 57.4019 32.0256L63.793 25.79L66.5503 29.1616ZM38.893 40.7817C38.8931 40.7815 38.8941 40.7825 38.8956 40.7847C38.8937 40.7829 38.893 40.7819 38.893 40.7817ZM59.2342 24.954C59.2341 24.9541 59.2332 24.9533 59.2317 24.9518C59.2335 24.9532 59.2342 24.954 59.2342 24.954ZM30.4813 29.9661L30.4814 29.9663C32.3726 32.2442 31.6414 35.1506 29.718 37.074C27.7945 38.9974 24.8881 39.7286 22.6102 37.8375L22.6101 37.8373C22.1124 37.4244 21.6702 36.7647 21.3203 35.9431C20.9727 35.1267 20.7296 34.1814 20.6113 33.2329C20.4928 32.2835 20.5015 31.349 20.6444 30.5535C20.7891 29.7482 21.0612 29.1391 21.4221 28.7784L21.4224 28.7781C21.783 28.4172 22.3922 28.1451 23.1974 28.0004C23.993 27.8575 24.9275 27.8488 25.8769 27.9673C26.8254 28.0857 27.7706 28.3287 28.587 28.6764C29.4087 29.0262 30.0684 29.4685 30.4813 29.9661ZM22.1878 31.3923L22.1876 31.3927C21.8725 31.9034 21.8264 32.611 21.9194 33.2793C22.015 33.9666 22.2699 34.7068 22.6642 35.3448C23.6262 36.9016 25.6263 37.0958 27.1233 36.6237C27.8896 36.382 28.6048 35.9476 29.0685 35.3428C29.545 34.7214 29.7443 33.9289 29.4567 33.0651C28.9898 31.6625 27.4871 30.7299 26.0573 30.3779C25.3267 30.198 24.5621 30.1541 23.8828 30.2957C23.2025 30.4375 22.5687 30.7762 22.1878 31.3923ZM2.72374 58.8492L2.72378 58.8493C3.44306 60.9721 5.25528 62.9564 7.44359 64.4026C9.63626 65.8518 12.2769 66.8082 14.726 66.8082C15.8096 66.8082 17.0022 66.2888 18.1458 65.5147C19.3014 64.7325 20.4638 63.6516 21.4989 62.4399C22.5346 61.2276 23.4544 59.8708 24.1176 58.5284C24.7772 57.1931 25.2009 55.8357 25.2009 54.6316C25.2009 53.4144 24.7358 51.8971 24.0276 50.4418C23.315 48.9777 22.3292 47.5206 21.2323 46.4236C16.7865 41.9778 11.1147 42.0389 7.08163 44.756C3.05427 47.4692 0.680763 52.8139 2.72374 58.8492ZM34.7804 64.8642L34.7803 64.8642C33.8362 64.6274 32.6774 63.9224 31.5753 62.9319C30.4805 61.948 29.4883 60.7241 28.8597 59.5085L28.8597 59.5085C25.915 53.8141 28.2385 48.5474 32.3516 45.9032C36.4677 43.2571 42.3389 43.264 46.5047 48.1869C49.8627 52.1553 49.5582 56.9608 47.1042 60.4698C44.6466 63.984 40.0367 66.1841 34.7804 64.8642ZM7.29514 59.4467L7.29506 59.4466C5.70111 57.1718 5.03009 55.595 5.12256 54.1812C5.21445 52.7764 6.0706 51.3943 7.92882 49.5361C9.77539 47.6895 11.51 46.7896 13.1832 46.7091C14.8504 46.6289 16.5709 47.3572 18.4041 49.0162C20.0811 50.5338 20.9261 52.399 20.9703 54.3087C21.0146 56.2213 20.2563 58.2251 18.6398 60.0114L18.6397 60.0115C15.3438 63.6546 10.0432 63.3708 7.29514 59.4467ZM19.0751 48.2747L18.7396 48.6454L19.0751 48.2747C17.1252 46.5101 15.1574 45.613 13.1352 45.7103C11.119 45.8073 9.16302 46.8877 7.22171 48.829C5.33253 50.7182 4.24181 52.3254 4.12469 54.116C4.00816 55.8976 4.86596 57.7225 6.47602 60.0203C9.60668 64.4908 15.6713 64.7831 19.3812 60.6824C21.1447 58.7338 22.0211 56.4889 21.9701 54.2855C21.9189 52.0792 20.9385 49.9611 19.0751 48.2747ZM31.865 50.4141L31.8651 50.414C33.3299 48.1776 35.2173 46.9633 37.1892 46.7218C39.1622 46.4801 41.3095 47.2014 43.3141 49.0161L43.3141 49.0161C46.7778 52.1512 46.7338 57.1529 43.1756 60.3716L43.1754 60.3717C41.2662 62.1006 39.0119 62.6871 36.9203 62.2787C34.8252 61.8695 32.8415 60.4511 31.5096 58.0696L31.5095 58.0695C30.4725 56.216 30.0474 55.2048 30.0915 54.2397C30.1358 53.2694 30.6581 52.2559 31.865 50.4141ZM15.7861 60.2429L15.7861 60.2429C12.8608 61.3658 10.1527 59.6131 8.85137 57.0316C8.20606 55.7516 7.94162 54.3187 8.17556 53.0291C8.40686 51.754 9.12703 50.5981 10.5036 49.8275C11.7186 49.1483 13.349 49.1039 14.9327 49.6184C16.5118 50.1314 17.9742 51.1794 18.8405 52.5809C19.1282 53.0466 19.2636 53.6857 19.2376 54.4365C19.2118 55.1831 19.0271 56.005 18.7143 56.8003C18.0786 58.4167 16.9722 59.7877 15.7861 60.2429ZM43.9986 53.4857L43.9988 53.4862C44.1805 53.9586 44.1117 54.7523 43.723 55.7099C43.3442 56.6435 42.6985 57.6375 41.8793 58.4567C40.5835 59.7525 39.7452 60.3561 38.957 60.5238C38.195 60.686 37.3695 60.461 36.025 59.7411L36.0247 59.741C34.1967 58.7633 33.1674 56.7728 33.051 54.7439C32.9344 52.7125 33.736 50.7665 35.4135 49.8275C36.8013 49.051 38.6081 49.0916 40.2673 49.7903C41.9232 50.4876 43.3567 51.8114 43.9986 53.4857ZM34.9252 48.9548L34.9251 48.9549C32.8226 50.1317 31.9209 52.5045 32.0526 54.8012C32.1845 57.1003 33.355 59.4471 35.5529 60.6227C36.9299 61.36 38.0325 61.743 39.1652 61.5019C40.2717 61.2664 41.2947 60.4555 42.5864 59.1638C43.4985 58.2518 44.2197 57.1456 44.6497 56.0859C45.0699 55.0504 45.2517 53.9579 44.9321 53.1272C44.1773 51.1587 42.5197 49.6538 40.6554 48.8687C38.7941 48.0849 36.6511 47.9892 34.9252 48.9548ZM10.4756 52.5483L10.4754 52.5485C9.78189 53.3849 9.36117 54.1854 9.49766 55.0492C9.6299 55.8862 10.2645 56.6182 11.1948 57.3905L11.1948 57.3906C12.8294 58.7471 14.6662 58.7715 15.9093 57.7967C17.1411 56.8308 17.6305 55.0078 16.8602 53L16.8602 52.9998C16.2616 51.4408 15.3478 50.4145 14.0969 50.3441C12.8967 50.2766 11.6616 51.12 10.4756 52.5483ZM36.0787 53.2805L36.0789 53.2803C36.9329 52.2504 38.2511 51.9774 39.3719 52.2963C40.4903 52.6146 41.3265 53.4899 41.3265 54.7063C41.3265 56.1146 40.6758 56.9843 39.838 57.3154C38.9849 57.6524 37.7902 57.4893 36.6097 56.5091L36.6095 56.5089C35.7894 55.8286 35.4553 55.3214 35.3901 54.8905C35.3281 54.4814 35.4889 53.9907 36.0787 53.2805ZM33.6886 26.183C35.6995 28.1939 36.6197 30.6172 36.5023 33.0782C36.3847 35.5444 35.2218 38.0946 32.9802 40.3362C30.7746 42.5418 28.3655 43.6976 25.9514 43.8512C23.5389 44.0048 21.0589 43.1616 18.7008 41.2524C16.6477 39.5901 15.511 36.8998 15.3833 34.0586C15.2558 31.2193 16.1401 28.2924 18.047 26.1852C19.796 24.2528 22.702 23.2455 25.7162 23.2418C28.7278 23.238 31.7427 24.237 33.6886 26.183ZM19.6767 27.0327C17.6794 29.0301 16.6012 31.1651 16.5517 33.2879C16.502 35.4208 17.4931 37.4412 19.4286 39.1923C25.4574 44.6494 34.5421 40.876 34.5421 32.812C34.5421 30.7768 33.1578 28.5195 31.3693 26.8052C29.5772 25.0875 27.2315 23.7726 25.1321 23.7726C24.7662 23.7726 24.3489 23.8862 23.9292 24.0539C23.5009 24.225 23.0325 24.4678 22.5531 24.7604C21.5946 25.3454 20.5611 26.1484 19.6767 27.0327ZM20.5252 47.1307C21.5301 48.1356 22.4553 49.4964 23.1284 50.8794C23.8058 52.2712 24.2009 53.6303 24.2009 54.6316C24.2009 55.6211 23.8461 56.8201 23.221 58.0855C22.5994 59.3437 21.7282 60.632 20.7386 61.7904C19.7484 62.9494 18.6512 63.965 17.5852 64.6866C16.5072 65.4164 15.5161 65.8082 14.726 65.8082C12.5184 65.8082 10.0666 64.9376 7.99497 63.5684C5.919 62.1964 4.2952 60.3709 3.67089 58.5284C1.77661 52.9322 3.97641 48.0538 7.64037 45.5854C11.2986 43.1208 16.4362 43.0418 20.5252 47.1307ZM30.9069 63.6757C32.0681 64.7192 33.3699 65.5414 34.5369 65.8341C40.2176 67.2605 45.2417 64.878 47.9237 61.0429C50.6094 57.2027 50.9502 51.8924 47.268 47.5409C42.7387 42.1884 36.2957 42.1789 31.8109 45.062C27.3231 47.9471 24.7587 53.7552 27.9715 59.9678C28.6647 61.3086 29.7385 62.6256 30.9069 63.6757ZM31.0286 49.8661C29.8442 51.6735 29.1513 52.9089 29.0925 54.1941C29.0335 55.4846 29.6173 56.7355 30.6368 58.5578C32.0948 61.1645 34.3116 62.7881 36.7286 63.2601C39.1493 63.7329 41.719 63.0396 43.8467 61.113C47.8267 57.5125 47.904 51.8218 43.9852 48.2748C41.8142 46.3093 39.3882 45.445 37.0677 45.7292C34.7461 46.0135 32.6199 47.4365 31.0286 49.8661ZM15.2922 57.0098C14.4853 57.6425 13.1742 57.7337 11.8335 56.6211C10.9205 55.8631 10.5556 55.3372 10.4854 54.8932C10.4195 54.4761 10.5935 53.9728 11.2449 53.1871C12.3911 51.8068 13.3458 51.3035 14.0407 51.3426C14.6849 51.3788 15.3716 51.9126 15.9266 53.3583C16.573 55.0433 16.1104 56.3682 15.2922 57.0098ZM35.3093 52.6417C34.6567 53.4276 34.2749 54.2058 34.4013 55.0403C34.5244 55.8528 35.1096 56.5639 35.9709 57.2784C37.3592 58.4312 38.9327 58.7483 40.2054 58.2454C41.4935 57.7365 42.3265 56.4461 42.3265 54.7063C42.3265 52.9476 41.0944 51.7468 39.6456 51.3345C38.1992 50.9229 36.4512 51.2648 35.3093 52.6417ZM41.2438 1.27832L41.2439 1.27829C45.6754 -0.607883 51.2388 0.994379 55.2426 5.48381L55.2426 5.48384C56.688 7.10419 57.5087 8.36535 57.9101 9.7706C58.3131 11.1813 58.3097 12.7928 57.9942 15.1466C57.6892 17.4212 57.6045 19.0019 57.8638 20.0242C57.9983 20.5544 58.2373 20.9866 58.6318 21.2761C59.0216 21.5623 59.4955 21.6588 59.9984 21.6588C60.9398 21.6588 62.0962 22.1371 63.3371 23.0181C64.5661 23.8907 65.8229 25.1193 66.9537 26.5254C68.0837 27.9305 69.0767 29.499 69.7853 31.0422C70.4966 32.5912 70.9071 34.0837 70.9071 35.345C70.9071 37.3811 70.4359 39.0678 68.5138 41.7023C66.568 44.3692 63.168 47.9619 57.336 53.7939L57.3359 53.7939C51.2522 59.8784 47.6956 63.2737 45.0491 65.1549C43.7349 66.0891 42.6639 66.6356 41.6369 66.9525C40.6106 67.2691 39.6006 67.3651 38.3921 67.3651C34.7093 67.3651 31.9571 66.2568 29.6913 63.9018L26.2102 60.2836L25.8568 59.9163L25.4963 60.2767L21.8781 63.8949C19.2639 66.5091 16.0802 67.6778 12.9481 67.4782C9.81393 67.2784 6.68798 65.7051 4.20426 62.7527L4.2042 62.7526C1.41176 59.4345 0.234432 56.7686 0.549972 54.016C0.869478 51.2288 2.73023 48.2186 6.38601 44.253L6.01839 43.9141L6.38602 44.253C8.46721 41.9953 10.0509 39.9126 11.1167 38.0207C12.1802 36.1328 12.7459 34.403 12.7459 32.8603C12.7459 31.3845 13.4294 29.6344 15.3977 26.9515C17.3617 24.2744 20.551 20.7387 25.4486 15.7018C28.9744 12.0758 32.5284 8.63133 35.4124 6.00446C36.8548 4.69066 38.1259 3.58466 39.14 2.76379C40.175 1.92602 40.8912 1.42832 41.2438 1.27832ZM34.0421 25.8294C38.2504 30.0377 37.9623 36.0612 33.3338 40.6898C28.7877 45.2359 23.2608 45.5877 18.3862 41.641C14.0098 38.0976 13.6595 30.2883 17.6763 25.8497C21.419 21.7146 29.9164 21.7037 34.0421 25.8294ZM30.8661 29.6469C35.0915 34.7363 27.3803 42.4475 22.2908 38.2222C19.9695 36.2963 19.2176 30.2743 21.0687 28.4247C22.9183 26.5736 28.9403 27.3256 30.8661 29.6469ZM7.57526 49.1826C3.82787 52.93 3.68153 55.1609 6.88558 59.7335C9.82496 63.9308 15.5075 64.2189 19.0105 60.3469C22.3905 56.612 22.28 51.8495 18.7396 48.6454C14.9564 45.2219 11.3631 45.3947 7.57526 49.1826ZM31.4468 50.14C29.0555 53.7893 29.0166 54.6379 31.0732 58.3136C33.8631 63.3019 39.4741 64.3979 43.5111 60.7424C47.2803 57.3328 47.341 51.9865 43.6496 48.6454C39.4741 44.8653 34.503 45.4741 31.4468 50.14ZM19.2658 52.3181C20.6904 54.6238 18.7116 59.6557 15.9653 60.7097C9.46377 63.2053 4.20774 52.7789 10.2593 49.3912C12.9994 47.8592 17.3914 49.2853 19.2658 52.3181Z"/>
</svg>
