<svg xmlns="http://www.w3.org/2000/svg" fill="none" viewBox="0 0 70 70"><path fill="#fff" d="M0 0h70v70H0z"/><path fill="#BEA77F" fill-rule="evenodd" d="M33.623 8.123c-.554.288-.585.499-.553 3.667.038 3.677-.07 3.472 1.823 3.472 1.906 0 1.793.227 1.793-3.612 0-3.795.091-3.594-1.651-3.644-.758-.022-1.219.016-1.412.117zm12.597 2.853c-.227.081-.642.69-1.732 2.54-1.44 2.445-1.698 3.088-1.388 3.458.074.088.587.424 1.14.746 8.391 4.883 11.617 15.27 7.426 23.912-1.746 3.603-4.577 6.507-8.084 8.292-3.115 1.587-5.447 2.078-9.875 2.082l-2.516.002v-1.605c0-1.452-.022-1.627-.231-1.834-.127-.126-.341-.23-.476-.23-.244 0-9.984 6.528-10.25 6.87-.23.297-.168.672.17 1.03.265.28 7.698 5.386 9.393 6.453.61.383.851.403 1.163.094.21-.208.231-.382.231-1.82v-1.59l3.153-.062c3.478-.07 4.645-.206 7.085-.828 3.423-.872 6.741-2.507 9.577-4.718 2.202-1.717 4.668-4.539 6.216-7.114 4.444-7.395 4.728-16.93.733-24.653-2.308-4.462-6.028-8.31-10.28-10.635-.855-.468-1.075-.527-1.455-.39zm-24.225.441c-.95.529-1.215.814-1.214 1.306 0 .472 2.735 5.197 3.135 5.417.457.25.764.185 1.73-.367 1.561-.893 1.557-.963-.251-4.067-.77-1.322-1.511-2.48-1.645-2.574-.396-.275-.893-.194-1.755.286zm-8.816 8.432c-.138.096-.462.553-.72 1.018-.548.983-.607 1.512-.21 1.87.143.129 1.311.834 2.596 1.567 2.348 1.34 2.757 1.494 3.271 1.221.284-.15 1.277-1.871 1.272-2.203-.009-.567-.324-.82-2.785-2.229-2.558-1.464-2.918-1.595-3.424-1.244zm13.08 4.814c-2.167.467-3.79 2.088-4.221 4.218-.119.587-.11.683.074.886.186.203.359.228 1.618.228 1.535 0 1.68-.056 1.834-.704.146-.608 1.19-1.244 2.041-1.244.537 0 1.195.248 1.524.574.296.293.327.4.326 1.107-.002 1.077-.478 2.384-1.334 3.67-.832 1.248-2.891 3.315-4.592 4.61-.684.52-1.322 1.057-1.418 1.193-.134.19-.174.597-.174 1.762 0 1.437.014 1.525.257 1.694.223.156.925.179 5.322.179 4.91 0 5.07-.007 5.295-.23.206-.203.231-.382.231-1.605 0-1.949.186-1.834-2.963-1.834h-2.5l.993-1.034c2.077-2.163 3.386-4.19 4.046-6.262 1.118-3.516-.25-6.339-3.469-7.155a5.934 5.934 0 00-2.89-.053zm16.014-.028c-.102.078-1.803 2.556-3.782 5.506l-3.598 5.363v1.642c0 1.445.025 1.664.212 1.831.187.168.616.19 3.701.19h3.49v1.645c0 2.112-.08 2.024 1.871 2.024 1.908 0 1.831.086 1.831-2.044v-1.625h.734c1.07 0 1.117-.077 1.117-1.854 0-1.74-.046-1.815-1.137-1.815h-.714v-5.313c0-5.003-.012-5.325-.211-5.504-.175-.157-.483-.19-1.771-.19-1.072 0-1.617.045-1.743.144zm.023 8.054v2.81h-1.908c-1.05 0-1.909-.029-1.909-.063 0-.072 3.735-5.556 3.784-5.556.019 0 .034 1.264.034 2.81zm-32.734-.715c-.482.246-.592.607-.556 1.83.05 1.727-.152 1.637 3.677 1.637 3.873 0 3.644.112 3.644-1.777 0-1.877.206-1.77-3.503-1.807-2.24-.023-3.046.006-3.262.117zm5.204 11.09c-1.304.75-2.462 1.475-2.574 1.612-.316.387-.244.868.267 1.785.523.938.802 1.19 1.32 1.19.464 0 5.235-2.72 5.452-3.108.253-.452.187-.756-.37-1.714-.903-1.55-1.002-1.545-4.095.234z" clip-rule="evenodd"/></svg>