<svg xmlns="http://www.w3.org/2000/svg" fill="none" viewBox="0 0 70 70"><defs/><path fill="#fff" d="M0 0h70v70H0z"/><path fill="#BEA77F" fill-rule="evenodd" d="M60.298 7.062c-3.476.165-7.58.987-10.994 2.2-3.809 1.356-7.067 3.187-9.911 5.572-1.573 1.318-4.824 4.758-8.052 8.518l-1.191 1.386a627.77 627.77 0 00-5.538 6.652l-.987 1.21-.956-.038c-1.084-.042-8.144-.143-8.346-.12-.372.044-.536.21-1.797 1.822-.713.91-1.507 1.924-1.765 2.25-2.39 3.021-2.367 2.985-1.93 3.16.118.048 1.926.453 4.017.9l3.803.812.146.553.146.552-.733 1.6c-.818 1.788-.841 1.89-.573 2.55.384.945 1.37 2.202 3.001 3.83 1.558 1.553 2.867 2.555 3.817 2.922.549.212.72.169 2.463-.62l1.61-.73.56.114c.31.062.566.116.572.12.009.004.866 4.032 1.51 7.095.095.453.201.876.236.94.153.286.335.165 3.696-2.467 1.816-1.422 3.347-2.655 3.404-2.741.111-.17.115-1.068.026-7.068-.023-1.536-.027-2.814-.009-2.839.018-.025.953-.8 2.078-1.722 9.025-7.403 13.732-11.617 15.787-14.136 4.547-5.574 7.192-13.025 7.57-21.332L62 7.076l-.212-.043a1.477 1.477 0 00-.319-.032c-.059.006-.586.033-1.171.06zm-14.264 12.36c1.623.311 2.9 1.443 3.431 3.04.13.39.153.593.151 1.32-.002.756-.023.914-.177 1.34-.907 2.523-3.661 3.723-6.02 2.622a4.476 4.476 0 01-2.454-2.94c-.145-.554-.144-1.544.002-2.111a5.06 5.06 0 01.867-1.728c.557-.695 1.583-1.332 2.408-1.497l.495-.099c.294-.058.84-.036 1.297.052zM12.08 47.488c-1.939 1.704-3.069 3.423-3.958 6.02-.758 2.21-1.109 4.399-1.117 6.953L7 61.98l.89.02c1.004.024 2.658-.077 3.695-.225 3.819-.546 6.932-1.899 8.995-3.91.478-.465 1.495-1.607 1.495-1.678 0-.038-.897-.574-.961-.574-.026 0-.303.169-.615.375-2.148 1.415-5.066 2.218-8.403 2.31l-1.434.04v-.983c0-2.19.344-4.28 1.024-6.228.293-.84.964-2.177 1.402-2.797l.323-.456-.296-.484c-.163-.267-.314-.484-.336-.483-.022 0-.336.263-.7.582z" clip-rule="evenodd"/></svg>