<svg xmlns="http://www.w3.org/2000/svg" fill="none" viewBox="0 0 70 70"><defs/><mask id="a" width="58" height="60" x="6.467" y="5.533" fill="#000" maskUnits="userSpaceOnUse"><path fill="#fff" d="M6.467 5.533h58v60h-58z"/><path fill-rule="evenodd" d="M26.79 6.587c-.224.066-.929.236-1.566.377-.637.141-2.016 1.055-3.063 2.03-1.048.975-2.47 1.894-3.16 2.043-1.677.361-4.11 2.422-5.028 4.261-1.036 2.073-1.285 3.721-.847 5.604.309 1.327.256 1.682-.3 2.019-1.885 1.143-3.8 3.294-4.612 5.185-.762 1.772-.866 2.546-.645 4.798.145 1.477.243 3.93.218 5.452-.074 4.508 1.3 7.42 4.504 9.541 1.492.988 1.566 1.14 1.548 3.182-.011 1.238.284 2.785.7 3.66.848 1.789 3.153 3.805 4.75 4.156.624.137 1.247.605 1.385 1.04.377 1.189 2.184 3.191 3.49 3.867 1.653.855 4.807.752 6.71-.22.882-.449 1.656-.816 1.72-.816.065 0 .118.367.118.817 0 .6.273.817 1.021.817h1.022V6.78h-1.022c-.748 0-1.02.218-1.02.817 0 1.009-.189 1.014-1.79.054-1.262-.758-3.347-1.293-4.132-1.063zm2.965 3.05c.733.447 1.7 1.411 2.15 2.144.798 1.297.816 1.928.711 24.313l-.108 22.98-1.538 1.54c-1.362 1.362-1.769 1.539-3.547 1.539-1.664 0-2.222-.206-3.255-1.196-1.415-1.357-1.944-3.343-1.346-5.059.345-.99.279-1.246-.437-1.693-.721-.45-.922-.42-1.384.212-.297.407-.54 1.073-.54 1.48 0 1.936-3.395-.473-4.131-2.932-.258-.863-.36-1.998-.226-2.524.206-.813.527-.97 2.135-1.043 1.232-.056 2.662-.52 4.093-1.328 1.21-.683 2.39-1.242 2.62-1.242.612 0 2.04 2.5 2.041 3.575.001.752.229.92 1.245.92 1.213 0 1.238-.039.979-1.533-.293-1.687-1.982-4.597-2.669-4.597-.266 0-.335-.454-.178-1.173.216-.983.109-1.212-.664-1.414-.507-.133-.938-.203-.956-.155-.019.047-.557.795-1.196 1.663-2.907 3.947-8.607 4.073-11.812.26-1.009-1.198-2.174-4.356-1.76-4.77.106-.106.96.314 1.896.934 1.413.936 1.765 1.028 2.073.541.491-.776.484-2.016-.011-2.016-1.117 0-3.32-2.662-3.924-4.743-.582-2-.582-2.408-.002-4.401.46-1.587 1.093-2.609 2.276-3.678.901-.815 1.749-1.481 1.884-1.481.136 0 .81.474 1.499 1.054l1.252 1.055.497-.93c.438-.818.343-1.123-.785-2.527-1.107-1.38-1.282-1.92-1.282-3.977 0-2.572.674-3.883 2.815-5.48.88-.655 1.703-.834 3.716-.805 2.301.033 2.633-.064 3.004-.879.346-.76.283-.95-.373-1.122-1.162-.304-.964-.913.538-1.653 1.775-.876 3.098-.836 4.7.141zm7.525.717c.108.937.35 1.146 1.456 1.252l1.328.129v2.602c0 2.346.09 2.63.919 2.877.505.151 1.985.745 3.288 1.319l2.368 1.044 1.731-1.7c.952-.934 1.913-1.699 2.137-1.699.511 0 5.076 4.59 5.076 5.105 0 .21-.764 1.16-1.698 2.113l-1.699 1.732 1.044 2.37c.574 1.304 1.167 2.784 1.318 3.29.247.83.53.92 2.9.92h2.628V39.471h-2.627c-2.377 0-2.651.087-2.881.92-.14.505-.73 2.08-1.31 3.498l-1.055 2.578 1.69 1.626c.93.893 1.69 1.761 1.69 1.928 0 .166-1.193 1.487-2.653 2.934l-2.652 2.63-1.942-1.878-1.942-1.88-2.45 1.177c-1.348.646-2.772 1.176-3.165 1.177-.613.002-.715.41-.715 2.862v2.86h-1.43c-1.23 0-1.429.135-1.429.97 0 .85.233.994 1.913 1.184 1.052.118 2.147.126 2.433.016.336-.13.563-1.217.64-3.073l.12-2.873 1.915-.752 1.916-.751 2.055 2.129 2.055 2.13 4.3-4.284c2.364-2.356 4.299-4.382 4.299-4.501 0-.12-.821-1.042-1.825-2.05-1.003-1.01-1.83-2.012-1.838-2.23-.007-.217.288-1.182.655-2.145l.668-1.75H62.526V29.7l-2.948-.12-2.949-.12-.806-1.95-.806-1.949 1.917-1.947c1.054-1.071 1.917-2.099 1.917-2.284 0-.454-6.95-7.556-7.91-8.083-.633-.347-1.099-.086-2.749 1.54l-1.986 1.957-1.948-.806-1.948-.806-.12-2.95-.12-2.951h-2.46c-2.442 0-2.459.007-2.33 1.123zM22.91 22.047c0 .823.312 1.198 1.361 1.636 3.15 1.317 4.18 5.081 2.075 7.584-.582.692-1.22 1.258-1.418 1.258-.198 0-1.195-.59-2.216-1.31-1.507-1.063-2.346-1.34-4.46-1.475-3.127-.2-3.962.154-3.47 1.463.307.819.537.896 1.985.664 2.356-.377 5.823 1.363 7.07 3.548.91 1.595 1.313 1.817 2.487 1.366.485-.186.53-.44.206-1.153-.355-.779-.207-1.124 1.004-2.336 2.538-2.539 2.928-6.1.983-8.96-1.173-1.723-2.616-2.766-4.279-3.092-1.225-.24-1.327-.178-1.327.807zm14.547 3.005c-.138.139-.252.682-.252 1.206 0 .714.231.956.919.963 2.658.026 6.285 2.994 7.256 5.938.73 2.211.243 5.357-1.133 7.332-1.133 1.626-3.718 3.23-5.919 3.674-.862.174-1.123.462-1.123 1.24 0 1.225.977 1.327 3.728.39 7.476-2.55 9.461-12.644 3.539-17.998-.902-.815-2.217-1.715-2.922-2-1.687-.681-3.776-1.062-4.093-.745z" clip-rule="evenodd"/></mask><path fill="#BEA77F" fill-rule="evenodd" d="M26.79 6.587c-.224.066-.929.236-1.566.377-.637.141-2.016 1.055-3.063 2.03-1.048.975-2.47 1.894-3.16 2.043-1.677.361-4.11 2.422-5.028 4.261-1.036 2.073-1.285 3.721-.847 5.604.309 1.327.256 1.682-.3 2.019-1.885 1.143-3.8 3.294-4.612 5.185-.762 1.772-.866 2.546-.645 4.798.145 1.477.243 3.93.218 5.452-.074 4.508 1.3 7.42 4.504 9.541 1.492.988 1.566 1.14 1.548 3.182-.011 1.238.284 2.785.7 3.66.848 1.789 3.153 3.805 4.75 4.156.624.137 1.247.605 1.385 1.04.377 1.189 2.184 3.191 3.49 3.867 1.653.855 4.807.752 6.71-.22.882-.449 1.656-.816 1.72-.816.065 0 .118.367.118.817 0 .6.273.817 1.021.817h1.022V6.78h-1.022c-.748 0-1.02.218-1.02.817 0 1.009-.189 1.014-1.79.054-1.262-.758-3.347-1.293-4.132-1.063zm2.965 3.05c.733.447 1.7 1.411 2.15 2.144.798 1.297.816 1.928.711 24.313l-.108 22.98-1.538 1.54c-1.362 1.362-1.769 1.539-3.547 1.539-1.664 0-2.222-.206-3.255-1.196-1.415-1.357-1.944-3.343-1.346-5.059.345-.99.279-1.246-.437-1.693-.721-.45-.922-.42-1.384.212-.297.407-.54 1.073-.54 1.48 0 1.936-3.395-.473-4.131-2.932-.258-.863-.36-1.998-.226-2.524.206-.813.527-.97 2.135-1.043 1.232-.056 2.662-.52 4.093-1.328 1.21-.683 2.39-1.242 2.62-1.242.612 0 2.04 2.5 2.041 3.575.001.752.229.92 1.245.92 1.213 0 1.238-.039.979-1.533-.293-1.687-1.982-4.597-2.669-4.597-.266 0-.335-.454-.178-1.173.216-.983.109-1.212-.664-1.414-.507-.133-.938-.203-.956-.155-.019.047-.557.795-1.196 1.663-2.907 3.947-8.607 4.073-11.812.26-1.009-1.198-2.174-4.356-1.76-4.77.106-.106.96.314 1.896.934 1.413.936 1.765 1.028 2.073.541.491-.776.484-2.016-.011-2.016-1.117 0-3.32-2.662-3.924-4.743-.582-2-.582-2.408-.002-4.401.46-1.587 1.093-2.609 2.276-3.678.901-.815 1.749-1.481 1.884-1.481.136 0 .81.474 1.499 1.054l1.252 1.055.497-.93c.438-.818.343-1.123-.785-2.527-1.107-1.38-1.282-1.92-1.282-3.977 0-2.572.674-3.883 2.815-5.48.88-.655 1.703-.834 3.716-.805 2.301.033 2.633-.064 3.004-.879.346-.76.283-.95-.373-1.122-1.162-.304-.964-.913.538-1.653 1.775-.876 3.098-.836 4.7.141zm7.525.717c.108.937.35 1.146 1.456 1.252l1.328.129v2.602c0 2.346.09 2.63.919 2.877.505.151 1.985.745 3.288 1.319l2.368 1.044 1.731-1.7c.952-.934 1.913-1.699 2.137-1.699.511 0 5.076 4.59 5.076 5.105 0 .21-.764 1.16-1.698 2.113l-1.699 1.732 1.044 2.37c.574 1.304 1.167 2.784 1.318 3.29.247.83.53.92 2.9.92h2.628V39.471h-2.627c-2.377 0-2.651.087-2.881.92-.14.505-.73 2.08-1.31 3.498l-1.055 2.578 1.69 1.626c.93.893 1.69 1.761 1.69 1.928 0 .166-1.193 1.487-2.653 2.934l-2.652 2.63-1.942-1.878-1.942-1.88-2.45 1.177c-1.348.646-2.772 1.176-3.165 1.177-.613.002-.715.41-.715 2.862v2.86h-1.43c-1.23 0-1.429.135-1.429.97 0 .85.233.994 1.913 1.184 1.052.118 2.147.126 2.433.016.336-.13.563-1.217.64-3.073l.12-2.873 1.915-.752 1.916-.751 2.055 2.129 2.055 2.13 4.3-4.284c2.364-2.356 4.299-4.382 4.299-4.501 0-.12-.821-1.042-1.825-2.05-1.003-1.01-1.83-2.012-1.838-2.23-.007-.217.288-1.182.655-2.145l.668-1.75H62.526V29.7l-2.948-.12-2.949-.12-.806-1.95-.806-1.949 1.917-1.947c1.054-1.071 1.917-2.099 1.917-2.284 0-.454-6.95-7.556-7.91-8.083-.633-.347-1.099-.086-2.749 1.54l-1.986 1.957-1.948-.806-1.948-.806-.12-2.95-.12-2.951h-2.46c-2.442 0-2.459.007-2.33 1.123zM22.91 22.047c0 .823.312 1.198 1.361 1.636 3.15 1.317 4.18 5.081 2.075 7.584-.582.692-1.22 1.258-1.418 1.258-.198 0-1.195-.59-2.216-1.31-1.507-1.063-2.346-1.34-4.46-1.475-3.127-.2-3.962.154-3.47 1.463.307.819.537.896 1.985.664 2.356-.377 5.823 1.363 7.07 3.548.91 1.595 1.313 1.817 2.487 1.366.485-.186.53-.44.206-1.153-.355-.779-.207-1.124 1.004-2.336 2.538-2.539 2.928-6.1.983-8.96-1.173-1.723-2.616-2.766-4.279-3.092-1.225-.24-1.327-.178-1.327.807zm14.547 3.005c-.138.139-.252.682-.252 1.206 0 .714.231.956.919.963 2.658.026 6.285 2.994 7.256 5.938.73 2.211.243 5.357-1.133 7.332-1.133 1.626-3.718 3.23-5.919 3.674-.862.174-1.123.462-1.123 1.24 0 1.225.977 1.327 3.728.39 7.476-2.55 9.461-12.644 3.539-17.998-.902-.815-2.217-1.715-2.922-2-1.687-.681-3.776-1.062-4.093-.745z" clip-rule="evenodd"/><path stroke="#BEA77F" stroke-width="2" d="M26.79 6.587c-.224.066-.929.236-1.566.377-.637.141-2.016 1.055-3.063 2.03-1.048.975-2.47 1.894-3.16 2.043-1.677.361-4.11 2.422-5.028 4.261-1.036 2.073-1.285 3.721-.847 5.604.309 1.327.256 1.682-.3 2.019-1.885 1.143-3.8 3.294-4.612 5.185-.762 1.772-.866 2.546-.645 4.798.145 1.477.243 3.93.218 5.452-.074 4.508 1.3 7.42 4.504 9.541 1.492.988 1.566 1.14 1.548 3.182-.011 1.238.284 2.785.7 3.66.848 1.789 3.153 3.805 4.75 4.156.624.137 1.247.605 1.385 1.04.377 1.189 2.184 3.191 3.49 3.867 1.653.855 4.807.752 6.71-.22.882-.449 1.656-.816 1.72-.816.065 0 .118.367.118.817 0 .6.273.817 1.021.817h1.022V6.78h-1.022c-.748 0-1.02.218-1.02.817 0 1.009-.189 1.014-1.79.054-1.262-.758-3.347-1.293-4.132-1.063zm2.965 3.05c.733.447 1.7 1.411 2.15 2.144.798 1.297.816 1.928.711 24.313l-.108 22.98-1.538 1.54c-1.362 1.362-1.769 1.539-3.547 1.539-1.664 0-2.222-.206-3.255-1.196-1.415-1.357-1.944-3.343-1.346-5.059.345-.99.279-1.246-.437-1.693-.721-.45-.922-.42-1.384.212-.297.407-.54 1.073-.54 1.48 0 1.936-3.395-.473-4.131-2.932-.258-.863-.36-1.998-.226-2.524.206-.813.527-.97 2.135-1.043 1.232-.056 2.662-.52 4.093-1.328 1.21-.683 2.39-1.242 2.62-1.242.612 0 2.04 2.5 2.041 3.575.001.752.229.92 1.245.92 1.213 0 1.238-.039.979-1.533-.293-1.687-1.982-4.597-2.669-4.597-.266 0-.335-.454-.178-1.173.216-.983.109-1.212-.664-1.414-.507-.133-.938-.203-.956-.155-.019.047-.557.795-1.196 1.663-2.907 3.947-8.607 4.073-11.812.26-1.009-1.198-2.174-4.356-1.76-4.77.106-.106.96.314 1.896.934 1.413.936 1.765 1.028 2.073.541.491-.776.484-2.016-.011-2.016-1.117 0-3.32-2.662-3.924-4.743-.582-2-.582-2.408-.002-4.401.46-1.587 1.093-2.609 2.276-3.678.901-.815 1.749-1.481 1.884-1.481.136 0 .81.474 1.499 1.054l1.252 1.055.497-.93c.438-.818.343-1.123-.785-2.527-1.107-1.38-1.282-1.92-1.282-3.977 0-2.572.674-3.883 2.815-5.48.88-.655 1.703-.834 3.716-.805 2.301.033 2.633-.064 3.004-.879.346-.76.283-.95-.373-1.122-1.162-.304-.964-.913.538-1.653 1.775-.876 3.098-.836 4.7.141zm7.525.717c.108.937.35 1.146 1.456 1.252l1.328.129v2.602c0 2.346.09 2.63.919 2.877.505.151 1.985.745 3.288 1.319l2.368 1.044 1.731-1.7c.952-.934 1.913-1.699 2.137-1.699.511 0 5.076 4.59 5.076 5.105 0 .21-.764 1.16-1.698 2.113l-1.699 1.732 1.044 2.37c.574 1.304 1.167 2.784 1.318 3.29.247.83.53.92 2.9.92h2.628V39.471h-2.627c-2.377 0-2.651.087-2.881.92-.14.505-.73 2.08-1.31 3.498l-1.055 2.578 1.69 1.626c.93.893 1.69 1.761 1.69 1.928 0 .166-1.193 1.487-2.653 2.934l-2.652 2.63-1.942-1.878-1.942-1.88-2.45 1.177c-1.348.646-2.772 1.176-3.165 1.177-.613.002-.715.41-.715 2.862v2.86h-1.43c-1.23 0-1.429.135-1.429.97 0 .85.233.994 1.913 1.184 1.052.118 2.147.126 2.433.016.336-.13.563-1.217.64-3.073l.12-2.873 1.915-.752 1.916-.751 2.055 2.129 2.055 2.13 4.3-4.284c2.364-2.356 4.299-4.382 4.299-4.501 0-.12-.821-1.042-1.825-2.05-1.003-1.01-1.83-2.012-1.838-2.23-.007-.217.288-1.182.655-2.145l.668-1.75H62.526V29.7l-2.948-.12-2.949-.12-.806-1.95-.806-1.949 1.917-1.947c1.054-1.071 1.917-2.099 1.917-2.284 0-.454-6.95-7.556-7.91-8.083-.633-.347-1.099-.086-2.749 1.54l-1.986 1.957-1.948-.806-1.948-.806-.12-2.95-.12-2.951h-2.46c-2.442 0-2.459.007-2.33 1.123zM22.91 22.047c0 .823.312 1.198 1.361 1.636 3.15 1.317 4.18 5.081 2.075 7.584-.582.692-1.22 1.258-1.418 1.258-.198 0-1.195-.59-2.216-1.31-1.507-1.063-2.346-1.34-4.46-1.475-3.127-.2-3.962.154-3.47 1.463.307.819.537.896 1.985.664 2.356-.377 5.823 1.363 7.07 3.548.91 1.595 1.313 1.817 2.487 1.366.485-.186.53-.44.206-1.153-.355-.779-.207-1.124 1.004-2.336 2.538-2.539 2.928-6.1.983-8.96-1.173-1.723-2.616-2.766-4.279-3.092-1.225-.24-1.327-.178-1.327.807zm14.547 3.005c-.138.139-.252.682-.252 1.206 0 .714.231.956.919.963 2.658.026 6.285 2.994 7.256 5.938.73 2.211.243 5.357-1.133 7.332-1.133 1.626-3.718 3.23-5.919 3.674-.862.174-1.123.462-1.123 1.24 0 1.225.977 1.327 3.728.39 7.476-2.55 9.461-12.644 3.539-17.998-.902-.815-2.217-1.715-2.922-2-1.687-.681-3.776-1.062-4.093-.745z" clip-rule="evenodd" mask="url(#a)"/></svg>