<svg xmlns="http://www.w3.org/2000/svg" fill="none" viewBox="0 0 70 70"><path d="M15.988 42.713c-3.15 7.317.248 15.858 7.566 19.008 7.327 3.155 15.854-.238 19.009-7.565 2.394-5.562.8-10.274-1.842-14.505-1.587.239-3.106.359-4.57.493 2.844 3.986 4.575 7.825 2.615 12.377-2.254 5.235-8.342 7.658-13.577 5.404a10.303 10.303 0 01-5.404-13.578c1.321-3.069 3.259-4.548 5.904-5.544 2.643-.997 5.997-1.355 9.508-1.67 3.512-.318 7.18-.592 10.569-1.85 3.39-1.255 6.5-3.66 8.24-7.702 3.15-7.317-.249-15.857-7.566-19.008-7.327-3.155-15.854.239-19.009 7.566-2.382 5.53-.894 10.224 1.663 14.428 1.565-.249 3.08-.44 4.537-.578-2.74-3.923-4.357-7.68-2.404-12.216 2.255-5.235 8.343-7.658 13.578-5.404a10.303 10.303 0 015.404 13.578c-1.3 3.018-3.214 4.444-5.853 5.425-2.637.983-5.994 1.347-9.509 1.672-3.514.323-7.196.628-10.595 1.907-3.398 1.28-6.508 3.685-8.264 7.762z"/></svg>