<svg xmlns="http://www.w3.org/2000/svg" fill="none" viewBox="0 0 70 70"><path fill-rule="evenodd" d="M32.914 7.619c-2.634.482-5.024 2-6.815 4.33l-.31.404-.853-.201c-1.1-.26-3.385-.171-4.754.184-3.086.801-5.64 2.51-7.556 5.056-.559.741-1.661 2.82-1.877 3.537-.522 1.738-.623 2.284-.691 3.754l-.074 1.593-1.31 1.293c-1.13 1.115-1.38 1.438-1.812 2.338-.926 1.931-1.262 3.37-1.262 5.403 0 4.067 1.965 7.856 5.22 10.065 1.28.869 1.564.988 2.36.988.562 0 .812-.066 1.172-.311.58-.395.95-1.11.95-1.84 0-.954-.408-1.467-1.904-2.393-1.344-.832-2.642-2.572-3.158-4.237-.352-1.133-.372-3.208-.042-4.298a8.133 8.133 0 013.015-4.245c1.22-.886 1.392-1.294 1.282-3.027-.1-1.582.069-2.775.566-3.998 1.139-2.797 3.325-4.713 6.184-5.419 1.115-.275 2.976-.28 4.01-.01 1.778.464 2.606.182 3.378-1.151.592-1.021 1.889-2.343 2.696-2.748 1.173-.587 1.891-.76 3.193-.763.881-.003 1.418.06 1.903.224 1.74.588 2.988 1.586 3.871 3.096.86 1.47 1.586 1.784 3.231 1.396 3.342-.788 6.706.245 8.888 2.731 1.656 1.887 2.542 4.615 2.186 6.73-.115.68-.116.998-.004 1.392.18.637.364.86 1.313 1.587 1.07.82 1.908 1.806 2.405 2.831.64 1.321.769 1.928.764 3.585-.005 1.608-.157 2.253-.826 3.5-.698 1.3-1.49 2.12-3.025 3.131-1.168.77-1.518 1.308-1.452 2.235.117 1.642 1.807 2.539 3.308 1.757 2.082-1.085 3.986-3.015 5.05-5.12.961-1.899 1.331-3.48 1.333-5.688.001-1.924-.252-3.19-.963-4.824-.628-1.441-1.713-2.8-3.083-3.86l-.4-.31v-1.28c0-4.777-2.769-9.215-7.245-11.611-2.242-1.2-5.604-1.761-7.62-1.271l-.877.213-.19-.287c-.47-.711-2.601-2.67-3.41-3.136-2.266-1.305-4.493-1.741-6.765-1.325zm.81 17.845c-.5.226-.872.582-1.1 1.053-.25.517-.252.633-.252 17.778v17.258l.286.541c.935 1.773 3.337 1.478 3.996-.49.202-.605.199-34.066-.004-34.657-.207-.604-.667-1.165-1.14-1.389-.413-.196-1.442-.25-1.787-.095zm-13.248 8.924c-.723.227-1.207.72-1.442 1.469-.218.692-.175.872.683 2.892 1.048 2.47 2.069 6.25 2.7 10.009.575 3.42.99 8.052.99 11.055 0 1.51.032 1.78.257 2.199.6 1.122 1.682 1.551 2.705 1.074.75-.35.927-.518 1.209-1.138.285-.628.314-1.712.127-4.778-.277-4.544-.787-8.551-1.487-11.666-.129-.575-.314-1.409-.412-1.854a33.704 33.704 0 00-.438-1.72l-.382-1.339c-.492-1.738-1.628-4.69-2.057-5.342a2.152 2.152 0 00-2.453-.861zm26.884-.039c-.764.22-1.122.583-1.602 1.627-.403.877-1.36 3.542-1.7 4.738l-.368 1.29c-.136.472-.39 1.522-.566 2.333-.175.81-.37 1.695-.432 1.965-.268 1.165-.863 5.164-.987 6.632-.074.878-.187 2.172-.251 2.876-.064.704-.117 2.322-.117 3.595 0 2.266.007 2.325.312 2.807.925 1.466 2.965 1.392 3.745-.136.192-.377.242-.723.242-1.683 0-2.82.446-7.937.987-11.328.54-3.384 1.797-8.205 2.64-10.132 1.014-2.316 1.061-2.528.735-3.27-.286-.65-.624-.97-1.291-1.223-.686-.26-.742-.264-1.347-.09z" clip-rule="evenodd"/></svg>