<svg width="67" height="44" viewBox="0 0 67 44" fill="none" xmlns="http://www.w3.org/2000/svg">
<mask id="path-1-outside-1" maskUnits="userSpaceOnUse" x="0" y="-0.456055" width="67" height="44" fill="black">
<rect fill="white" y="-0.456055" width="67" height="44"/>
<path fill-rule="evenodd" clip-rule="evenodd" d="M55.0306 1.59864C54.643 1.69759 49.3107 4.35029 49.0882 4.55488C48.4258 5.1639 48.3313 6.08083 48.8249 7.11084L49.1564 7.80248L48.8589 7.90617C48.6953 7.96324 48.0781 8.0089 47.4876 8.00774C45.8575 8.00465 45.2197 7.83875 40.9967 6.32034C38.5383 5.4364 36.5064 5.07926 33.9836 5.08778C30.8659 5.09832 28.0925 5.845 25.9525 7.24994C24.5694 8.15806 23.651 9.11214 23.1321 10.1802L22.9086 10.6402L22.4271 10.5764C21.7721 10.4895 20.425 9.9716 19.5593 9.47372C18.4943 8.8614 18.4851 8.85251 18.6011 8.54751C18.8125 7.99139 18.6721 7.25323 18.2456 6.67883C17.896 6.20794 12.3941 3.46344 11.7998 3.46344C11.11 3.46344 10.4448 3.86343 10.058 4.51077C9.87763 4.81257 7.76538 8.974 5.36399 13.7583C1.49208 21.4723 0.998071 22.5071 1.00001 22.8995C1.00252 23.4312 1.25925 24.0228 1.63863 24.3716C1.79166 24.5122 3.15608 25.2476 4.67071 26.0057C7.13023 27.2367 7.47702 27.384 7.91589 27.384C8.18626 27.384 8.50644 27.331 8.62755 27.2662C8.82295 27.1615 8.8985 27.1884 9.29994 27.5053C9.54864 27.7017 10.1984 28.2089 10.7437 28.6325C11.289 29.056 11.7352 29.4227 11.7352 29.4473C11.7352 29.472 11.6433 29.6722 11.5311 29.8923C11.1117 30.7143 11.1345 31.9757 11.5846 32.8544C11.816 33.3063 12.4332 33.9572 12.9066 34.2489C13.3405 34.5163 14.248 34.7329 14.7375 34.6858L15.1967 34.6417L15.2572 35.0982C15.3413 35.7316 15.8255 36.6544 16.2977 37.081C17.307 37.9929 18.7727 38.2232 20.0542 37.6714C20.1606 37.6257 20.2494 37.7317 20.3869 38.069C20.663 38.7454 21.5155 39.5586 22.2313 39.8284C22.7217 40.0132 22.9378 40.0393 23.6333 39.998C24.0855 39.9712 24.5457 39.9206 24.6558 39.8853C24.8249 39.8313 24.8736 39.8795 24.9682 40.1955C25.2474 41.1275 26.2378 42.0635 27.2424 42.3448C28.6278 42.7327 30.262 42.0786 31.0915 40.8042L31.2465 40.5662L32.4458 40.9664C33.9313 41.4622 34.5729 41.5409 35.5177 41.3437C36.6924 41.0985 37.7156 40.3607 38.1413 39.4519C38.3685 38.9668 38.3742 38.9626 38.7165 39.0356C38.9066 39.0762 39.3688 39.1088 39.7439 39.1081C40.9847 39.1058 41.9513 38.4579 42.7863 37.0686C43.0595 36.614 43.1249 36.4067 43.1249 35.9939C43.1249 35.7127 43.1466 35.4955 43.1732 35.5113C43.8382 35.9073 44.2356 36.013 45.0595 36.0126C45.8182 36.0122 45.9941 35.9785 46.428 35.7504C47.1468 35.3726 47.8678 34.6276 48.2053 33.9142C48.3638 33.5794 48.4934 33.2256 48.4934 33.1281C48.4935 33.0305 48.5261 32.9673 48.5661 32.9876C49.3697 33.3961 49.8218 33.5576 50.3036 33.608C51.8134 33.7658 53.2207 32.9471 53.8999 31.5159C54.1176 31.0571 54.1521 30.8573 54.1506 30.0649C54.149 29.2218 54.1226 29.0934 53.8315 28.5104L53.5141 27.8748L53.7405 27.2514C53.865 26.9085 54.1319 26.3793 54.3336 26.0752C54.7545 25.4412 55.9312 24.316 56.5109 23.9933L56.9048 23.7741L57.1955 24.3497C57.6367 25.2239 58.4346 25.7053 59.2309 25.578C59.4328 25.5457 60.6363 25.014 61.9053 24.3962C63.1743 23.7786 64.3869 23.1969 64.6002 23.1034C65.448 22.7321 65.9954 22.004 66 21.2416C66.0028 20.7729 65.8496 20.4048 64.5002 17.6348C63.8781 16.3579 62.421 13.3543 61.2619 10.9602C56.8767 1.90189 57.0551 2.25274 56.7041 1.99185C56.1668 1.59264 55.5876 1.45654 55.0306 1.59864ZM57.842 7.38111C58.9763 9.72203 60.9282 13.7489 62.1794 16.3297C63.4307 18.9106 64.4544 21.123 64.4544 21.2465C64.4544 21.4441 64.1374 21.6254 61.7839 22.7744C60.2965 23.5005 59.023 24.0651 58.9096 24.0486C58.7438 24.0246 58.2126 23.0005 56.0595 18.5537C54.6042 15.5477 52.6547 11.5256 51.7273 9.61553C50.8 7.70555 50.0412 6.03759 50.0412 5.90894C50.0412 5.69883 50.3105 5.54271 52.6772 4.38066C54.1945 3.63563 55.4121 3.09451 55.5464 3.10563C55.7537 3.12275 56.0092 3.59858 57.842 7.38111ZM14.4953 6.29287C16.6056 7.34619 17.0736 7.61607 17.1219 7.80731C17.2027 8.12701 8.40826 25.6756 8.0904 25.8287C7.91067 25.9152 7.50536 25.7416 5.33352 24.6478C3.93322 23.9425 2.73306 23.3221 2.66651 23.2693C2.60006 23.2164 2.5456 23.0633 2.5456 22.9288C2.5456 22.7945 3.30234 21.2001 4.22729 19.3858C5.15215 17.5715 7.08738 13.7364 8.52773 10.8635C9.96807 7.99052 11.2348 5.4984 11.3427 5.32554C11.4583 5.1402 11.6187 5.01116 11.7332 5.01116C11.8402 5.01116 13.0831 5.58798 14.4953 6.29287ZM36.7984 6.79578C38.2504 7.02388 39.8205 7.46391 41.592 8.1393C44.3307 9.18343 45.899 9.55865 47.5126 9.55604C48.3361 9.55478 49.2042 9.42216 49.6604 9.22812C49.7802 9.17714 50.024 9.59967 50.8389 11.2712C53.1044 15.9186 54.3942 18.5819 54.3942 18.6125C54.3942 18.6302 54.809 19.4791 55.3159 20.4989C55.8228 21.5187 56.2255 22.3645 56.2106 22.3784C56.1958 22.3923 55.8573 22.6219 55.4583 22.8885C54.1942 23.7332 53.1462 24.9139 52.5606 26.1531C52.2965 26.7121 52.2431 26.7705 52.0769 26.6816C51.9741 26.6265 50.8973 25.9376 49.6839 25.1507C48.4706 24.3637 46.3025 22.9631 44.866 22.0383C43.4296 21.1135 42.1923 20.3012 42.1164 20.233C42.0006 20.1288 42.0536 20.0769 42.4485 19.9076C43.5259 19.4458 44.9407 18.156 45.068 17.5197C45.1483 17.118 44.7752 16.6836 44.35 16.6836C44.0984 16.6836 43.9222 16.8091 43.3431 17.4009C42.463 18.3005 41.7526 18.6799 40.8547 18.7302C40.3973 18.7558 40.0886 18.7145 39.7366 18.5804C39.2776 18.4056 31.8287 13.6624 31.2435 13.1722C30.6084 12.6403 30.2027 12.9674 28.5529 15.3415C26.7746 17.9007 26.2472 18.3939 24.7556 18.8929C23.4089 19.3434 21.5968 19.3191 21.1676 18.845C21.0168 18.6784 21.0555 18.5753 21.8321 17.074C22.931 14.9498 23.4731 13.7263 23.9721 12.244C24.4661 10.7763 24.6965 10.3606 25.4409 9.59251C26.9466 8.03908 29.2939 7.02716 32.2425 6.66045C33.2024 6.54108 35.6375 6.61344 36.7984 6.79578ZM18.1679 10.4341C19.1104 11.0773 21.5199 12.0726 22.1345 12.0726C22.3719 12.0726 22.3905 12.0977 22.3304 12.337C22.1972 12.8675 21.4607 14.4857 20.5267 16.2996C19.6627 17.9775 19.5705 18.207 19.5705 18.6802C19.5705 19.5151 20.0577 20.1253 21.0173 20.4922C22.5496 21.0781 25.2328 20.6543 26.8695 19.568C27.7105 19.0098 28.3375 18.3149 29.4253 16.7349C29.9637 15.953 30.504 15.1889 30.6259 15.037L30.8474 14.7609L34.6162 17.2002C38.9439 20.0013 38.9343 19.9951 40.6098 21.088C41.3015 21.5392 42.1938 22.1188 42.5928 22.3759C42.9919 22.6331 44.363 23.5249 45.6399 24.3577C46.9168 25.1904 48.288 26.0829 48.687 26.3409C52.5148 28.8162 52.5761 28.8724 52.6339 29.9576C52.6759 30.7479 52.4087 31.3225 51.7996 31.7515C51.3025 32.1017 50.4725 32.1982 49.9252 31.9695C49.6054 31.8359 47.5165 30.4211 44.3357 28.1838C43.6715 27.7166 43.0295 27.297 42.9089 27.251C42.4838 27.0895 41.9157 27.5136 41.9157 27.9925C41.9157 28.317 42.2157 28.5702 44.4013 30.0896C45.5291 30.8737 46.5581 31.6567 46.6882 31.8299C47.1378 32.4284 47.1107 32.9094 46.5844 33.6742C46.2005 34.2322 45.6482 34.5146 44.9407 34.5146C44.3961 34.5146 44.3126 34.4832 43.7439 34.0645C40.9899 32.0371 38.6749 30.4518 38.4683 30.4518C37.9492 30.4518 37.5552 31.2344 37.8771 31.6259C37.9437 31.7069 38.6951 32.2774 39.5471 32.8939C40.399 33.5104 41.2175 34.1272 41.3657 34.2646C42.126 34.9691 42.1027 36.4769 41.3205 37.1876C40.7255 37.7283 39.6872 37.9119 39.0616 37.5871C38.9017 37.504 37.7299 36.757 36.4576 35.927C35.1026 35.0431 34.0482 34.4178 33.9125 34.4178C33.5592 34.4178 33.3378 34.576 33.2206 34.9119C33.0372 35.4382 33.221 35.6295 35.0477 36.8137C36.4272 37.708 36.7568 37.9648 36.8285 38.201C37.0991 39.0921 35.701 40.0473 34.3351 39.9044C33.9463 39.8638 32.4058 39.4146 32.2617 39.3C32.2457 39.2873 32.3616 39.0732 32.5195 38.8244C33.5258 37.2375 32.9009 34.9324 31.2268 34.056C30.8464 33.8569 30.0477 33.6466 29.6661 33.6451C29.3632 33.644 29.363 33.6436 29.3232 33.0394C29.2441 31.8406 28.5274 30.7794 27.4323 30.2403C26.9 29.9783 26.6814 29.9272 26.02 29.9105L25.2375 29.8908L25.1295 29.4216C24.8923 28.3906 24.2084 27.5669 23.198 27.0953C22.3754 26.7113 21.3302 26.7144 20.4749 27.1035C20.1475 27.2524 19.7586 27.5008 19.6104 27.6555C19.4621 27.8102 19.3096 27.9368 19.2714 27.9368C19.2332 27.9368 19.0906 27.7469 18.9546 27.5147C18.4241 26.6095 17.4093 25.9982 16.318 25.9267C15.005 25.8406 13.9202 26.4142 13.0886 27.6344C12.9028 27.9069 12.7073 28.1294 12.6541 28.1287C12.5759 28.1277 10.1602 26.2973 9.91942 26.0565C9.85489 25.992 17.7309 10.2412 17.8293 10.2377C17.8559 10.2367 18.0083 10.3252 18.1679 10.4341ZM59.2328 18.2395C58.2325 18.742 58.1896 20.189 59.1574 20.779C59.8166 21.1811 60.7436 20.9273 61.1397 20.2365C61.8543 18.99 60.5201 17.5928 59.2328 18.2395ZM6.33654 19.9105C5.75121 20.2673 5.57381 21.0841 5.95667 21.659C6.44082 22.386 7.29023 22.4937 7.92798 21.9093C8.78107 21.1275 8.21189 19.7152 7.04366 19.7152C6.82581 19.7152 6.51675 19.8005 6.33654 19.9105ZM16.9924 27.6824C17.5188 27.9708 17.8293 28.5405 17.8293 29.2179C17.8293 29.704 17.7824 29.8258 17.3489 30.4669C16.4405 31.8097 15.5509 32.9107 15.216 33.1063C14.9873 33.2398 14.7079 33.3022 14.3383 33.3022C13.3299 33.3022 12.6058 32.5545 12.6058 31.5133C12.6058 30.8997 12.6078 30.8958 13.8397 29.2154C14.4703 28.355 14.9669 27.7741 15.1558 27.6756C15.8218 27.3286 16.35 27.3305 16.9924 27.6824ZM22.6068 28.458C23.2315 28.719 23.7321 29.4461 23.7279 30.086C23.7244 30.6109 23.4445 31.0806 21.8088 33.3054C19.7178 36.1495 19.7944 36.0577 19.3406 36.2639C17.6671 37.0238 16.1336 35.1144 17.1785 33.5717C17.3137 33.3721 18.1579 32.2075 19.0545 30.9838C20.4437 29.0878 20.7483 28.7268 21.1154 28.5413C21.6072 28.2928 22.1402 28.2631 22.6068 28.458ZM26.6982 31.5223C27.3849 31.7825 27.836 32.5413 27.7708 33.3268C27.7233 33.8995 27.6935 33.9484 25.9215 36.3525C24.7945 37.8813 24.5546 38.156 24.17 38.3567C23.8109 38.5441 22.968 38.542 22.6041 38.3527C22.0314 38.0549 21.5998 37.3495 21.604 36.7183C21.6073 36.2197 21.88 35.7595 23.3684 33.7407C24.9 31.6632 25.169 31.4236 25.9727 31.4207C26.222 31.4198 26.5485 31.4656 26.6982 31.5223ZM30.3741 35.1975C31.1754 35.4991 31.6993 36.4852 31.4847 37.2879C31.3492 37.7941 29.4893 40.3929 29.0265 40.7224C28.5684 41.0486 27.6765 41.0764 27.1669 40.7804C26.7141 40.5175 26.3722 40.0471 26.2811 39.5618C26.1632 38.9329 26.3867 38.4472 27.4817 36.9519C28.3258 35.7993 28.6041 35.489 28.9521 35.3126C29.4163 35.0773 29.9418 35.0347 30.3741 35.1975Z"/>
</mask>
<path fill-rule="evenodd" clip-rule="evenodd" d="M55.0306 1.59864C54.643 1.69759 49.3107 4.35029 49.0882 4.55488C48.4258 5.1639 48.3313 6.08083 48.8249 7.11084L49.1564 7.80248L48.8589 7.90617C48.6953 7.96324 48.0781 8.0089 47.4876 8.00774C45.8575 8.00465 45.2197 7.83875 40.9967 6.32034C38.5383 5.4364 36.5064 5.07926 33.9836 5.08778C30.8659 5.09832 28.0925 5.845 25.9525 7.24994C24.5694 8.15806 23.651 9.11214 23.1321 10.1802L22.9086 10.6402L22.4271 10.5764C21.7721 10.4895 20.425 9.9716 19.5593 9.47372C18.4943 8.8614 18.4851 8.85251 18.6011 8.54751C18.8125 7.99139 18.6721 7.25323 18.2456 6.67883C17.896 6.20794 12.3941 3.46344 11.7998 3.46344C11.11 3.46344 10.4448 3.86343 10.058 4.51077C9.87763 4.81257 7.76538 8.974 5.36399 13.7583C1.49208 21.4723 0.998071 22.5071 1.00001 22.8995C1.00252 23.4312 1.25925 24.0228 1.63863 24.3716C1.79166 24.5122 3.15608 25.2476 4.67071 26.0057C7.13023 27.2367 7.47702 27.384 7.91589 27.384C8.18626 27.384 8.50644 27.331 8.62755 27.2662C8.82295 27.1615 8.8985 27.1884 9.29994 27.5053C9.54864 27.7017 10.1984 28.2089 10.7437 28.6325C11.289 29.056 11.7352 29.4227 11.7352 29.4473C11.7352 29.472 11.6433 29.6722 11.5311 29.8923C11.1117 30.7143 11.1345 31.9757 11.5846 32.8544C11.816 33.3063 12.4332 33.9572 12.9066 34.2489C13.3405 34.5163 14.248 34.7329 14.7375 34.6858L15.1967 34.6417L15.2572 35.0982C15.3413 35.7316 15.8255 36.6544 16.2977 37.081C17.307 37.9929 18.7727 38.2232 20.0542 37.6714C20.1606 37.6257 20.2494 37.7317 20.3869 38.069C20.663 38.7454 21.5155 39.5586 22.2313 39.8284C22.7217 40.0132 22.9378 40.0393 23.6333 39.998C24.0855 39.9712 24.5457 39.9206 24.6558 39.8853C24.8249 39.8313 24.8736 39.8795 24.9682 40.1955C25.2474 41.1275 26.2378 42.0635 27.2424 42.3448C28.6278 42.7327 30.262 42.0786 31.0915 40.8042L31.2465 40.5662L32.4458 40.9664C33.9313 41.4622 34.5729 41.5409 35.5177 41.3437C36.6924 41.0985 37.7156 40.3607 38.1413 39.4519C38.3685 38.9668 38.3742 38.9626 38.7165 39.0356C38.9066 39.0762 39.3688 39.1088 39.7439 39.1081C40.9847 39.1058 41.9513 38.4579 42.7863 37.0686C43.0595 36.614 43.1249 36.4067 43.1249 35.9939C43.1249 35.7127 43.1466 35.4955 43.1732 35.5113C43.8382 35.9073 44.2356 36.013 45.0595 36.0126C45.8182 36.0122 45.9941 35.9785 46.428 35.7504C47.1468 35.3726 47.8678 34.6276 48.2053 33.9142C48.3638 33.5794 48.4934 33.2256 48.4934 33.1281C48.4935 33.0305 48.5261 32.9673 48.5661 32.9876C49.3697 33.3961 49.8218 33.5576 50.3036 33.608C51.8134 33.7658 53.2207 32.9471 53.8999 31.5159C54.1176 31.0571 54.1521 30.8573 54.1506 30.0649C54.149 29.2218 54.1226 29.0934 53.8315 28.5104L53.5141 27.8748L53.7405 27.2514C53.865 26.9085 54.1319 26.3793 54.3336 26.0752C54.7545 25.4412 55.9312 24.316 56.5109 23.9933L56.9048 23.7741L57.1955 24.3497C57.6367 25.2239 58.4346 25.7053 59.2309 25.578C59.4328 25.5457 60.6363 25.014 61.9053 24.3962C63.1743 23.7786 64.3869 23.1969 64.6002 23.1034C65.448 22.7321 65.9954 22.004 66 21.2416C66.0028 20.7729 65.8496 20.4048 64.5002 17.6348C63.8781 16.3579 62.421 13.3543 61.2619 10.9602C56.8767 1.90189 57.0551 2.25274 56.7041 1.99185C56.1668 1.59264 55.5876 1.45654 55.0306 1.59864ZM57.842 7.38111C58.9763 9.72203 60.9282 13.7489 62.1794 16.3297C63.4307 18.9106 64.4544 21.123 64.4544 21.2465C64.4544 21.4441 64.1374 21.6254 61.7839 22.7744C60.2965 23.5005 59.023 24.0651 58.9096 24.0486C58.7438 24.0246 58.2126 23.0005 56.0595 18.5537C54.6042 15.5477 52.6547 11.5256 51.7273 9.61553C50.8 7.70555 50.0412 6.03759 50.0412 5.90894C50.0412 5.69883 50.3105 5.54271 52.6772 4.38066C54.1945 3.63563 55.4121 3.09451 55.5464 3.10563C55.7537 3.12275 56.0092 3.59858 57.842 7.38111ZM14.4953 6.29287C16.6056 7.34619 17.0736 7.61607 17.1219 7.80731C17.2027 8.12701 8.40826 25.6756 8.0904 25.8287C7.91067 25.9152 7.50536 25.7416 5.33352 24.6478C3.93322 23.9425 2.73306 23.3221 2.66651 23.2693C2.60006 23.2164 2.5456 23.0633 2.5456 22.9288C2.5456 22.7945 3.30234 21.2001 4.22729 19.3858C5.15215 17.5715 7.08738 13.7364 8.52773 10.8635C9.96807 7.99052 11.2348 5.4984 11.3427 5.32554C11.4583 5.1402 11.6187 5.01116 11.7332 5.01116C11.8402 5.01116 13.0831 5.58798 14.4953 6.29287ZM36.7984 6.79578C38.2504 7.02388 39.8205 7.46391 41.592 8.1393C44.3307 9.18343 45.899 9.55865 47.5126 9.55604C48.3361 9.55478 49.2042 9.42216 49.6604 9.22812C49.7802 9.17714 50.024 9.59967 50.8389 11.2712C53.1044 15.9186 54.3942 18.5819 54.3942 18.6125C54.3942 18.6302 54.809 19.4791 55.3159 20.4989C55.8228 21.5187 56.2255 22.3645 56.2106 22.3784C56.1958 22.3923 55.8573 22.6219 55.4583 22.8885C54.1942 23.7332 53.1462 24.9139 52.5606 26.1531C52.2965 26.7121 52.2431 26.7705 52.0769 26.6816C51.9741 26.6265 50.8973 25.9376 49.6839 25.1507C48.4706 24.3637 46.3025 22.9631 44.866 22.0383C43.4296 21.1135 42.1923 20.3012 42.1164 20.233C42.0006 20.1288 42.0536 20.0769 42.4485 19.9076C43.5259 19.4458 44.9407 18.156 45.068 17.5197C45.1483 17.118 44.7752 16.6836 44.35 16.6836C44.0984 16.6836 43.9222 16.8091 43.3431 17.4009C42.463 18.3005 41.7526 18.6799 40.8547 18.7302C40.3973 18.7558 40.0886 18.7145 39.7366 18.5804C39.2776 18.4056 31.8287 13.6624 31.2435 13.1722C30.6084 12.6403 30.2027 12.9674 28.5529 15.3415C26.7746 17.9007 26.2472 18.3939 24.7556 18.8929C23.4089 19.3434 21.5968 19.3191 21.1676 18.845C21.0168 18.6784 21.0555 18.5753 21.8321 17.074C22.931 14.9498 23.4731 13.7263 23.9721 12.244C24.4661 10.7763 24.6965 10.3606 25.4409 9.59251C26.9466 8.03908 29.2939 7.02716 32.2425 6.66045C33.2024 6.54108 35.6375 6.61344 36.7984 6.79578ZM18.1679 10.4341C19.1104 11.0773 21.5199 12.0726 22.1345 12.0726C22.3719 12.0726 22.3905 12.0977 22.3304 12.337C22.1972 12.8675 21.4607 14.4857 20.5267 16.2996C19.6627 17.9775 19.5705 18.207 19.5705 18.6802C19.5705 19.5151 20.0577 20.1253 21.0173 20.4922C22.5496 21.0781 25.2328 20.6543 26.8695 19.568C27.7105 19.0098 28.3375 18.3149 29.4253 16.7349C29.9637 15.953 30.504 15.1889 30.6259 15.037L30.8474 14.7609L34.6162 17.2002C38.9439 20.0013 38.9343 19.9951 40.6098 21.088C41.3015 21.5392 42.1938 22.1188 42.5928 22.3759C42.9919 22.6331 44.363 23.5249 45.6399 24.3577C46.9168 25.1904 48.288 26.0829 48.687 26.3409C52.5148 28.8162 52.5761 28.8724 52.6339 29.9576C52.6759 30.7479 52.4087 31.3225 51.7996 31.7515C51.3025 32.1017 50.4725 32.1982 49.9252 31.9695C49.6054 31.8359 47.5165 30.4211 44.3357 28.1838C43.6715 27.7166 43.0295 27.297 42.9089 27.251C42.4838 27.0895 41.9157 27.5136 41.9157 27.9925C41.9157 28.317 42.2157 28.5702 44.4013 30.0896C45.5291 30.8737 46.5581 31.6567 46.6882 31.8299C47.1378 32.4284 47.1107 32.9094 46.5844 33.6742C46.2005 34.2322 45.6482 34.5146 44.9407 34.5146C44.3961 34.5146 44.3126 34.4832 43.7439 34.0645C40.9899 32.0371 38.6749 30.4518 38.4683 30.4518C37.9492 30.4518 37.5552 31.2344 37.8771 31.6259C37.9437 31.7069 38.6951 32.2774 39.5471 32.8939C40.399 33.5104 41.2175 34.1272 41.3657 34.2646C42.126 34.9691 42.1027 36.4769 41.3205 37.1876C40.7255 37.7283 39.6872 37.9119 39.0616 37.5871C38.9017 37.504 37.7299 36.757 36.4576 35.927C35.1026 35.0431 34.0482 34.4178 33.9125 34.4178C33.5592 34.4178 33.3378 34.576 33.2206 34.9119C33.0372 35.4382 33.221 35.6295 35.0477 36.8137C36.4272 37.708 36.7568 37.9648 36.8285 38.201C37.0991 39.0921 35.701 40.0473 34.3351 39.9044C33.9463 39.8638 32.4058 39.4146 32.2617 39.3C32.2457 39.2873 32.3616 39.0732 32.5195 38.8244C33.5258 37.2375 32.9009 34.9324 31.2268 34.056C30.8464 33.8569 30.0477 33.6466 29.6661 33.6451C29.3632 33.644 29.363 33.6436 29.3232 33.0394C29.2441 31.8406 28.5274 30.7794 27.4323 30.2403C26.9 29.9783 26.6814 29.9272 26.02 29.9105L25.2375 29.8908L25.1295 29.4216C24.8923 28.3906 24.2084 27.5669 23.198 27.0953C22.3754 26.7113 21.3302 26.7144 20.4749 27.1035C20.1475 27.2524 19.7586 27.5008 19.6104 27.6555C19.4621 27.8102 19.3096 27.9368 19.2714 27.9368C19.2332 27.9368 19.0906 27.7469 18.9546 27.5147C18.4241 26.6095 17.4093 25.9982 16.318 25.9267C15.005 25.8406 13.9202 26.4142 13.0886 27.6344C12.9028 27.9069 12.7073 28.1294 12.6541 28.1287C12.5759 28.1277 10.1602 26.2973 9.91942 26.0565C9.85489 25.992 17.7309 10.2412 17.8293 10.2377C17.8559 10.2367 18.0083 10.3252 18.1679 10.4341ZM59.2328 18.2395C58.2325 18.742 58.1896 20.189 59.1574 20.779C59.8166 21.1811 60.7436 20.9273 61.1397 20.2365C61.8543 18.99 60.5201 17.5928 59.2328 18.2395ZM6.33654 19.9105C5.75121 20.2673 5.57381 21.0841 5.95667 21.659C6.44082 22.386 7.29023 22.4937 7.92798 21.9093C8.78107 21.1275 8.21189 19.7152 7.04366 19.7152C6.82581 19.7152 6.51675 19.8005 6.33654 19.9105ZM16.9924 27.6824C17.5188 27.9708 17.8293 28.5405 17.8293 29.2179C17.8293 29.704 17.7824 29.8258 17.3489 30.4669C16.4405 31.8097 15.5509 32.9107 15.216 33.1063C14.9873 33.2398 14.7079 33.3022 14.3383 33.3022C13.3299 33.3022 12.6058 32.5545 12.6058 31.5133C12.6058 30.8997 12.6078 30.8958 13.8397 29.2154C14.4703 28.355 14.9669 27.7741 15.1558 27.6756C15.8218 27.3286 16.35 27.3305 16.9924 27.6824ZM22.6068 28.458C23.2315 28.719 23.7321 29.4461 23.7279 30.086C23.7244 30.6109 23.4445 31.0806 21.8088 33.3054C19.7178 36.1495 19.7944 36.0577 19.3406 36.2639C17.6671 37.0238 16.1336 35.1144 17.1785 33.5717C17.3137 33.3721 18.1579 32.2075 19.0545 30.9838C20.4437 29.0878 20.7483 28.7268 21.1154 28.5413C21.6072 28.2928 22.1402 28.2631 22.6068 28.458ZM26.6982 31.5223C27.3849 31.7825 27.836 32.5413 27.7708 33.3268C27.7233 33.8995 27.6935 33.9484 25.9215 36.3525C24.7945 37.8813 24.5546 38.156 24.17 38.3567C23.8109 38.5441 22.968 38.542 22.6041 38.3527C22.0314 38.0549 21.5998 37.3495 21.604 36.7183C21.6073 36.2197 21.88 35.7595 23.3684 33.7407C24.9 31.6632 25.169 31.4236 25.9727 31.4207C26.222 31.4198 26.5485 31.4656 26.6982 31.5223ZM30.3741 35.1975C31.1754 35.4991 31.6993 36.4852 31.4847 37.2879C31.3492 37.7941 29.4893 40.3929 29.0265 40.7224C28.5684 41.0486 27.6765 41.0764 27.1669 40.7804C26.7141 40.5175 26.3722 40.0471 26.2811 39.5618C26.1632 38.9329 26.3867 38.4472 27.4817 36.9519C28.3258 35.7993 28.6041 35.489 28.9521 35.3126C29.4163 35.0773 29.9418 35.0347 30.3741 35.1975Z" fill="#BEA77F"/>
<path fill-rule="evenodd" clip-rule="evenodd" d="M55.0306 1.59864C54.643 1.69759 49.3107 4.35029 49.0882 4.55488C48.4258 5.1639 48.3313 6.08083 48.8249 7.11084L49.1564 7.80248L48.8589 7.90617C48.6953 7.96324 48.0781 8.0089 47.4876 8.00774C45.8575 8.00465 45.2197 7.83875 40.9967 6.32034C38.5383 5.4364 36.5064 5.07926 33.9836 5.08778C30.8659 5.09832 28.0925 5.845 25.9525 7.24994C24.5694 8.15806 23.651 9.11214 23.1321 10.1802L22.9086 10.6402L22.4271 10.5764C21.7721 10.4895 20.425 9.9716 19.5593 9.47372C18.4943 8.8614 18.4851 8.85251 18.6011 8.54751C18.8125 7.99139 18.6721 7.25323 18.2456 6.67883C17.896 6.20794 12.3941 3.46344 11.7998 3.46344C11.11 3.46344 10.4448 3.86343 10.058 4.51077C9.87763 4.81257 7.76538 8.974 5.36399 13.7583C1.49208 21.4723 0.998071 22.5071 1.00001 22.8995C1.00252 23.4312 1.25925 24.0228 1.63863 24.3716C1.79166 24.5122 3.15608 25.2476 4.67071 26.0057C7.13023 27.2367 7.47702 27.384 7.91589 27.384C8.18626 27.384 8.50644 27.331 8.62755 27.2662C8.82295 27.1615 8.8985 27.1884 9.29994 27.5053C9.54864 27.7017 10.1984 28.2089 10.7437 28.6325C11.289 29.056 11.7352 29.4227 11.7352 29.4473C11.7352 29.472 11.6433 29.6722 11.5311 29.8923C11.1117 30.7143 11.1345 31.9757 11.5846 32.8544C11.816 33.3063 12.4332 33.9572 12.9066 34.2489C13.3405 34.5163 14.248 34.7329 14.7375 34.6858L15.1967 34.6417L15.2572 35.0982C15.3413 35.7316 15.8255 36.6544 16.2977 37.081C17.307 37.9929 18.7727 38.2232 20.0542 37.6714C20.1606 37.6257 20.2494 37.7317 20.3869 38.069C20.663 38.7454 21.5155 39.5586 22.2313 39.8284C22.7217 40.0132 22.9378 40.0393 23.6333 39.998C24.0855 39.9712 24.5457 39.9206 24.6558 39.8853C24.8249 39.8313 24.8736 39.8795 24.9682 40.1955C25.2474 41.1275 26.2378 42.0635 27.2424 42.3448C28.6278 42.7327 30.262 42.0786 31.0915 40.8042L31.2465 40.5662L32.4458 40.9664C33.9313 41.4622 34.5729 41.5409 35.5177 41.3437C36.6924 41.0985 37.7156 40.3607 38.1413 39.4519C38.3685 38.9668 38.3742 38.9626 38.7165 39.0356C38.9066 39.0762 39.3688 39.1088 39.7439 39.1081C40.9847 39.1058 41.9513 38.4579 42.7863 37.0686C43.0595 36.614 43.1249 36.4067 43.1249 35.9939C43.1249 35.7127 43.1466 35.4955 43.1732 35.5113C43.8382 35.9073 44.2356 36.013 45.0595 36.0126C45.8182 36.0122 45.9941 35.9785 46.428 35.7504C47.1468 35.3726 47.8678 34.6276 48.2053 33.9142C48.3638 33.5794 48.4934 33.2256 48.4934 33.1281C48.4935 33.0305 48.5261 32.9673 48.5661 32.9876C49.3697 33.3961 49.8218 33.5576 50.3036 33.608C51.8134 33.7658 53.2207 32.9471 53.8999 31.5159C54.1176 31.0571 54.1521 30.8573 54.1506 30.0649C54.149 29.2218 54.1226 29.0934 53.8315 28.5104L53.5141 27.8748L53.7405 27.2514C53.865 26.9085 54.1319 26.3793 54.3336 26.0752C54.7545 25.4412 55.9312 24.316 56.5109 23.9933L56.9048 23.7741L57.1955 24.3497C57.6367 25.2239 58.4346 25.7053 59.2309 25.578C59.4328 25.5457 60.6363 25.014 61.9053 24.3962C63.1743 23.7786 64.3869 23.1969 64.6002 23.1034C65.448 22.7321 65.9954 22.004 66 21.2416C66.0028 20.7729 65.8496 20.4048 64.5002 17.6348C63.8781 16.3579 62.421 13.3543 61.2619 10.9602C56.8767 1.90189 57.0551 2.25274 56.7041 1.99185C56.1668 1.59264 55.5876 1.45654 55.0306 1.59864ZM57.842 7.38111C58.9763 9.72203 60.9282 13.7489 62.1794 16.3297C63.4307 18.9106 64.4544 21.123 64.4544 21.2465C64.4544 21.4441 64.1374 21.6254 61.7839 22.7744C60.2965 23.5005 59.023 24.0651 58.9096 24.0486C58.7438 24.0246 58.2126 23.0005 56.0595 18.5537C54.6042 15.5477 52.6547 11.5256 51.7273 9.61553C50.8 7.70555 50.0412 6.03759 50.0412 5.90894C50.0412 5.69883 50.3105 5.54271 52.6772 4.38066C54.1945 3.63563 55.4121 3.09451 55.5464 3.10563C55.7537 3.12275 56.0092 3.59858 57.842 7.38111ZM14.4953 6.29287C16.6056 7.34619 17.0736 7.61607 17.1219 7.80731C17.2027 8.12701 8.40826 25.6756 8.0904 25.8287C7.91067 25.9152 7.50536 25.7416 5.33352 24.6478C3.93322 23.9425 2.73306 23.3221 2.66651 23.2693C2.60006 23.2164 2.5456 23.0633 2.5456 22.9288C2.5456 22.7945 3.30234 21.2001 4.22729 19.3858C5.15215 17.5715 7.08738 13.7364 8.52773 10.8635C9.96807 7.99052 11.2348 5.4984 11.3427 5.32554C11.4583 5.1402 11.6187 5.01116 11.7332 5.01116C11.8402 5.01116 13.0831 5.58798 14.4953 6.29287ZM36.7984 6.79578C38.2504 7.02388 39.8205 7.46391 41.592 8.1393C44.3307 9.18343 45.899 9.55865 47.5126 9.55604C48.3361 9.55478 49.2042 9.42216 49.6604 9.22812C49.7802 9.17714 50.024 9.59967 50.8389 11.2712C53.1044 15.9186 54.3942 18.5819 54.3942 18.6125C54.3942 18.6302 54.809 19.4791 55.3159 20.4989C55.8228 21.5187 56.2255 22.3645 56.2106 22.3784C56.1958 22.3923 55.8573 22.6219 55.4583 22.8885C54.1942 23.7332 53.1462 24.9139 52.5606 26.1531C52.2965 26.7121 52.2431 26.7705 52.0769 26.6816C51.9741 26.6265 50.8973 25.9376 49.6839 25.1507C48.4706 24.3637 46.3025 22.9631 44.866 22.0383C43.4296 21.1135 42.1923 20.3012 42.1164 20.233C42.0006 20.1288 42.0536 20.0769 42.4485 19.9076C43.5259 19.4458 44.9407 18.156 45.068 17.5197C45.1483 17.118 44.7752 16.6836 44.35 16.6836C44.0984 16.6836 43.9222 16.8091 43.3431 17.4009C42.463 18.3005 41.7526 18.6799 40.8547 18.7302C40.3973 18.7558 40.0886 18.7145 39.7366 18.5804C39.2776 18.4056 31.8287 13.6624 31.2435 13.1722C30.6084 12.6403 30.2027 12.9674 28.5529 15.3415C26.7746 17.9007 26.2472 18.3939 24.7556 18.8929C23.4089 19.3434 21.5968 19.3191 21.1676 18.845C21.0168 18.6784 21.0555 18.5753 21.8321 17.074C22.931 14.9498 23.4731 13.7263 23.9721 12.244C24.4661 10.7763 24.6965 10.3606 25.4409 9.59251C26.9466 8.03908 29.2939 7.02716 32.2425 6.66045C33.2024 6.54108 35.6375 6.61344 36.7984 6.79578ZM18.1679 10.4341C19.1104 11.0773 21.5199 12.0726 22.1345 12.0726C22.3719 12.0726 22.3905 12.0977 22.3304 12.337C22.1972 12.8675 21.4607 14.4857 20.5267 16.2996C19.6627 17.9775 19.5705 18.207 19.5705 18.6802C19.5705 19.5151 20.0577 20.1253 21.0173 20.4922C22.5496 21.0781 25.2328 20.6543 26.8695 19.568C27.7105 19.0098 28.3375 18.3149 29.4253 16.7349C29.9637 15.953 30.504 15.1889 30.6259 15.037L30.8474 14.7609L34.6162 17.2002C38.9439 20.0013 38.9343 19.9951 40.6098 21.088C41.3015 21.5392 42.1938 22.1188 42.5928 22.3759C42.9919 22.6331 44.363 23.5249 45.6399 24.3577C46.9168 25.1904 48.288 26.0829 48.687 26.3409C52.5148 28.8162 52.5761 28.8724 52.6339 29.9576C52.6759 30.7479 52.4087 31.3225 51.7996 31.7515C51.3025 32.1017 50.4725 32.1982 49.9252 31.9695C49.6054 31.8359 47.5165 30.4211 44.3357 28.1838C43.6715 27.7166 43.0295 27.297 42.9089 27.251C42.4838 27.0895 41.9157 27.5136 41.9157 27.9925C41.9157 28.317 42.2157 28.5702 44.4013 30.0896C45.5291 30.8737 46.5581 31.6567 46.6882 31.8299C47.1378 32.4284 47.1107 32.9094 46.5844 33.6742C46.2005 34.2322 45.6482 34.5146 44.9407 34.5146C44.3961 34.5146 44.3126 34.4832 43.7439 34.0645C40.9899 32.0371 38.6749 30.4518 38.4683 30.4518C37.9492 30.4518 37.5552 31.2344 37.8771 31.6259C37.9437 31.7069 38.6951 32.2774 39.5471 32.8939C40.399 33.5104 41.2175 34.1272 41.3657 34.2646C42.126 34.9691 42.1027 36.4769 41.3205 37.1876C40.7255 37.7283 39.6872 37.9119 39.0616 37.5871C38.9017 37.504 37.7299 36.757 36.4576 35.927C35.1026 35.0431 34.0482 34.4178 33.9125 34.4178C33.5592 34.4178 33.3378 34.576 33.2206 34.9119C33.0372 35.4382 33.221 35.6295 35.0477 36.8137C36.4272 37.708 36.7568 37.9648 36.8285 38.201C37.0991 39.0921 35.701 40.0473 34.3351 39.9044C33.9463 39.8638 32.4058 39.4146 32.2617 39.3C32.2457 39.2873 32.3616 39.0732 32.5195 38.8244C33.5258 37.2375 32.9009 34.9324 31.2268 34.056C30.8464 33.8569 30.0477 33.6466 29.6661 33.6451C29.3632 33.644 29.363 33.6436 29.3232 33.0394C29.2441 31.8406 28.5274 30.7794 27.4323 30.2403C26.9 29.9783 26.6814 29.9272 26.02 29.9105L25.2375 29.8908L25.1295 29.4216C24.8923 28.3906 24.2084 27.5669 23.198 27.0953C22.3754 26.7113 21.3302 26.7144 20.4749 27.1035C20.1475 27.2524 19.7586 27.5008 19.6104 27.6555C19.4621 27.8102 19.3096 27.9368 19.2714 27.9368C19.2332 27.9368 19.0906 27.7469 18.9546 27.5147C18.4241 26.6095 17.4093 25.9982 16.318 25.9267C15.005 25.8406 13.9202 26.4142 13.0886 27.6344C12.9028 27.9069 12.7073 28.1294 12.6541 28.1287C12.5759 28.1277 10.1602 26.2973 9.91942 26.0565C9.85489 25.992 17.7309 10.2412 17.8293 10.2377C17.8559 10.2367 18.0083 10.3252 18.1679 10.4341ZM59.2328 18.2395C58.2325 18.742 58.1896 20.189 59.1574 20.779C59.8166 21.1811 60.7436 20.9273 61.1397 20.2365C61.8543 18.99 60.5201 17.5928 59.2328 18.2395ZM6.33654 19.9105C5.75121 20.2673 5.57381 21.0841 5.95667 21.659C6.44082 22.386 7.29023 22.4937 7.92798 21.9093C8.78107 21.1275 8.21189 19.7152 7.04366 19.7152C6.82581 19.7152 6.51675 19.8005 6.33654 19.9105ZM16.9924 27.6824C17.5188 27.9708 17.8293 28.5405 17.8293 29.2179C17.8293 29.704 17.7824 29.8258 17.3489 30.4669C16.4405 31.8097 15.5509 32.9107 15.216 33.1063C14.9873 33.2398 14.7079 33.3022 14.3383 33.3022C13.3299 33.3022 12.6058 32.5545 12.6058 31.5133C12.6058 30.8997 12.6078 30.8958 13.8397 29.2154C14.4703 28.355 14.9669 27.7741 15.1558 27.6756C15.8218 27.3286 16.35 27.3305 16.9924 27.6824ZM22.6068 28.458C23.2315 28.719 23.7321 29.4461 23.7279 30.086C23.7244 30.6109 23.4445 31.0806 21.8088 33.3054C19.7178 36.1495 19.7944 36.0577 19.3406 36.2639C17.6671 37.0238 16.1336 35.1144 17.1785 33.5717C17.3137 33.3721 18.1579 32.2075 19.0545 30.9838C20.4437 29.0878 20.7483 28.7268 21.1154 28.5413C21.6072 28.2928 22.1402 28.2631 22.6068 28.458ZM26.6982 31.5223C27.3849 31.7825 27.836 32.5413 27.7708 33.3268C27.7233 33.8995 27.6935 33.9484 25.9215 36.3525C24.7945 37.8813 24.5546 38.156 24.17 38.3567C23.8109 38.5441 22.968 38.542 22.6041 38.3527C22.0314 38.0549 21.5998 37.3495 21.604 36.7183C21.6073 36.2197 21.88 35.7595 23.3684 33.7407C24.9 31.6632 25.169 31.4236 25.9727 31.4207C26.222 31.4198 26.5485 31.4656 26.6982 31.5223ZM30.3741 35.1975C31.1754 35.4991 31.6993 36.4852 31.4847 37.2879C31.3492 37.7941 29.4893 40.3929 29.0265 40.7224C28.5684 41.0486 27.6765 41.0764 27.1669 40.7804C26.7141 40.5175 26.3722 40.0471 26.2811 39.5618C26.1632 38.9329 26.3867 38.4472 27.4817 36.9519C28.3258 35.7993 28.6041 35.489 28.9521 35.3126C29.4163 35.0773 29.9418 35.0347 30.3741 35.1975Z" stroke="#BEA77F" stroke-width="2" mask="url(#path-1-outside-1)"/>
</svg>
