<svg xmlns="http://www.w3.org/2000/svg" fill="none" viewBox="0 0 65 66"><path d="M32.5 46.542l2.708-5.417V27.199c4.661-1.21 8.125-5.417 8.125-10.449 0-5.975-4.859-10.833-10.833-10.833-5.975 0-10.834 4.858-10.834 10.833 0 5.032 3.465 9.238 8.125 10.449v13.926l2.709 5.417z"/><path fill="#BEA77F" d="M44.056 29.108l-1.443 5.222c7.017 1.939 11.553 5.668 11.553 9.503 0 5.124-8.896 10.834-21.666 10.834s-21.667-5.71-21.667-10.834c0-3.835 4.537-7.564 11.557-9.506l-1.444-5.222c-9.58 2.649-15.53 8.29-15.53 14.728 0 9.111 11.898 16.25 27.084 16.25 15.185 0 27.083-7.139 27.083-16.25 0-6.438-5.95-12.079-15.527-14.725z"/></svg>