<svg xmlns="http://www.w3.org/2000/svg" fill="none" viewBox="0 0 69 50"><path fill-rule="evenodd" d="M3.443.088C.918.242 0 .616 0 1.487c0 1.022 1.123 1.605 3.093 1.605h1.959v38.212l1.267 3.536C7.657 48.574 8.753 50 10.284 50c1.53 0 2.626-1.426 3.964-5.16l1.268-3.536V3.092h2.273c1.287 0 2.461-.188 2.706-.433.568-.568.552-1.545-.034-2.032C19.957.21 7.765-.178 3.443.087zm23.996 0C24.75.24 23.815.6 23.815 1.486c0 1.022 1.123 1.605 3.093 1.605h1.958v38.212l1.268 3.536c1.338 3.734 2.434 5.16 3.965 5.16 1.53 0 2.626-1.426 3.964-5.16l1.268-3.536V3.092h2.008c1.105 0 2.322-.168 2.706-.374.802-.429.919-1.52.224-2.096-.512-.425-12.206-.797-16.83-.535zm23.815 0C48.564.24 47.63.6 47.63 1.486c0 1.022 1.123 1.605 3.092 1.605h1.96v38.212l1.227 3.356a263.522 263.522 0 001.463 3.938C55.64 49.261 57.073 50 58.09 50c1.346 0 2.485-1.562 3.781-5.185l1.273-3.561V3.092H65.5c2.169 0 2.385-.072 2.77-.916.793-1.74.119-1.93-7.469-2.093-3.77-.082-8.066-.08-9.546.004zM12.63 21.757v18.666l-1.135 3.172c-.624 1.745-1.18 3.128-1.234 3.073-.055-.055-.6-1.47-1.21-3.144L7.937 40.48V3.092H12.63v18.666zm23.815 0v18.666l-1.135 3.172c-.624 1.745-1.18 3.128-1.234 3.073-.055-.055-.6-1.47-1.21-3.144l-1.112-3.045V3.092H36.444v18.666zm23.728.08l.093 18.568-1.138 3.18c-.625 1.75-1.183 3.138-1.237 3.083-.055-.055-.6-1.47-1.211-3.144l-1.111-3.045V3.058l2.255.107 2.255.107.094 18.567z" clip-rule="evenodd"/></svg>