<svg xmlns="http://www.w3.org/2000/svg" fill="none" viewBox="0 0 60 50"><path fill-rule="evenodd" d="M58.836.374C58.551.089 51.622 0 29.554 0 1.292 0 .638.013.323.603.108 1.003 0 9.214 0 25.066 0 47.374.036 48.962.545 49.47c.488.487 1.267.544 7.3.526 5.087-.014 6.874-.12 7.245-.427.437-.363.492-2.239.492-16.731V16.516h21.44c16.26 0 21.53-.09 21.814-.373.27-.27.374-2.459.374-7.885S59.106.644 58.836.374zm-22.687 13.65H15.582V2.492h3.74v2.742c0 2.917.238 3.49 1.453 3.49 1.027 0 1.35-.89 1.35-3.718V2.493H24.588l.094 1.792c.084 1.6.17 1.803.812 1.894 1.14.161 1.619-.478 1.619-2.166v-1.52H29.605V5.26c0 2.995.287 3.6 1.619 3.412.68-.097.727-.262.874-3.063l.156-2.96 1.308-.095 1.309-.095.093 1.809c.085 1.618.17 1.82.813 1.91 1.14.162 1.619-.477 1.619-2.165v-1.52H39.889V5.26c0 2.995.287 3.6 1.619 3.412.68-.097.726-.262.874-3.063l.156-2.96 1.308-.095 1.309-.095.093 1.809c.084 1.618.17 1.82.813 1.91 1.14.162 1.619-.477 1.619-2.165v-1.52h3.716l.09 2.846c.079 2.523.166 2.896.767 3.295.61.404.744.384 1.325-.197.552-.552.646-1.03.646-3.295V2.493h1.039c.571 0 1.132.094 1.246.208.114.114.208 2.708.208 5.765v5.557H36.149zM7.947 47.367H2.805V2.493h9.96l.09 6.778c.05 3.728.123 13.825.162 22.437l.072 15.66H7.947zM9.997 6.52c-2.473-2.472-6.657.423-5.163 3.572.3.63.942 1.282 1.546 1.569 3.205 1.521 6.126-2.63 3.616-5.14zM7.79 9.35c-.343 0-.623-.202-.623-.45 0-.55.513-.902.935-.64.548.338.333 1.09-.312 1.09z" clip-rule="evenodd"/></svg>