<svg xmlns="http://www.w3.org/2000/svg" fill="none" viewBox="0 0 65 66"><path  d="M44.866 60.08h.076c1.43 0 2.782-.563 3.805-1.587l7.345-7.345a2.704 2.704 0 000-3.83L45.26 36.487a2.706 2.706 0 00-3.83 0l-4.317 4.317c-2.001-.596-5.736-1.95-8.103-4.317s-3.721-6.102-4.317-8.104l4.317-4.317a2.707 2.707 0 000-3.83L18.176 9.403a2.79 2.79 0 00-3.83 0l-7.342 7.345a5.413 5.413 0 00-1.587 3.887c.062 3.856 1.083 17.252 11.64 27.809C27.614 59 41.01 60.018 44.867 60.08zM16.264 15.148l7.003 7.003-3.502 3.502a2.697 2.697 0 00-.734 2.47c.065.312 1.655 7.697 6.151 12.193 4.496 4.496 11.881 6.086 12.193 6.15a2.693 2.693 0 002.47-.733l3.502-3.502 7.004 7.004-5.433 5.43c-3.38-.057-14.945-.964-24.031-10.053-9.117-9.117-10-20.722-10.054-24.034l5.43-5.43zm37.9 15.142h5.417c0-13.894-10.49-24.372-24.403-24.372v5.416c11.002 0 18.986 7.97 18.986 18.956z"/><path fill="#BEA77F" d="M35.206 22.167c5.695 0 8.125 2.429 8.125 8.125h5.416c0-8.735-4.807-13.542-13.541-13.542v5.417z"/></svg>