<svg xmlns="http://www.w3.org/2000/svg" fill="none" viewBox="0 0 83 50"><path fill-rule="evenodd" d="M63.505 12.598l-12.093-.068V4.392a4.35 4.35 0 00-1.29-3.1A4.35 4.35 0 0047.02 0H13.5a4.35 4.35 0 00-3.1 1.291 4.377 4.377 0 00-1.292 3.101c0 .66.531 1.19 1.19 1.19.66 0 1.19-.53 1.19-1.19 0-.552.23-1.056.593-1.42a2.01 2.01 0 011.419-.591H47.02c.552 0 1.056.229 1.42.592.363.363.592.867.592 1.419V41.66h-6.713c-.66 0-1.19.531-1.19 1.19 0 .66.53 1.19 1.19 1.19h7.903c.66 0 1.19-.53 1.19-1.19v-1.352h7.184c.544-12.388 18.334-14.097 20.144 0h3.907l-1.204-12.927-12.826-4.91-5.112-11.064zM1.782 25.248C.794 25.249 0 24.712 0 24.053c0-.66.8-1.197 1.782-1.197H17.85c.99 0 1.783.537 1.783 1.197 0 .659-.8 1.197-1.783 1.197H1.782zm3.68-6.443c-.74 0-1.339-.53-1.339-1.19 0-.66.599-1.19 1.338-1.19h12.396c.74 0 1.339.53 1.339 1.19 0 .66-.599 1.19-1.339 1.19H5.461zm1.701-6.443c-.74 0-1.338-.531-1.338-1.19 0-.66.598-1.19 1.338-1.19H17.85c.74 0 1.339.53 1.339 1.19 0 .659-.599 1.19-1.339 1.19H7.163zm10.634 29.291c.659 0 1.19.532 1.19 1.19 0 .66-.531 1.191-1.19 1.191h-4.298c-1.204 0-2.3-.524-3.1-1.352-.794-.827-1.292-1.957-1.292-3.154v-8.744c0-.659.531-1.19 1.19-1.19.66 0 1.19.531 1.19 1.19v8.744c0 .572.236 1.116.62 1.513.363.377.854.619 1.385.619h4.305v-.007zm12.106-7.775a8.066 8.066 0 00-8.064 8.064 8.066 8.066 0 008.064 8.065 8.066 8.066 0 008.065-8.065c-.007-4.452-3.612-8.064-8.065-8.064zm0 4.964a3.102 3.102 0 000 6.201c1.709 0 3.1-1.386 3.1-3.1a3.106 3.106 0 00-3.1-3.101zm38.741-4.964a8.066 8.066 0 00-8.064 8.064 8.066 8.066 0 008.064 8.065 8.066 8.066 0 008.064-8.065 8.066 8.066 0 00-8.064-8.064zm0 4.964a3.101 3.101 0 10.002 6.203 3.101 3.101 0 00-.002-6.203zm-8.253-22.828l-6.006-.067v7.728h10.069l-4.062-7.66z" clip-rule="evenodd"/></svg>