<svg xmlns="http://www.w3.org/2000/svg" fill="none" viewBox="0 0 40 50"><path fill-rule="evenodd" d="M13.428.376C6.808 1.489 2.415 3.967.721 7.546L0 9.068v31.966l.804 1.593c1.689 3.346 5.264 5.451 11.596 6.83 3.303.718 11.29.725 14.605.012 4.995-1.074 8.25-2.627 10.33-4.928 1.325-1.467 2.01-3.433 1.516-4.355-.236-.441-.235-19.728.002-31.366.076-3.76-5.21-7.179-13.072-8.454-3.036-.492-9.396-.487-12.353.01zm13.87 2.579c4.272.978 7.73 2.75 8.799 4.507.53.87.51 2.092-.055 3.59-.334.884-2.283 2.41-3.08 2.41-.3 0-.804.24-1.117.533-.572.537-4.554 1.825-6.085 1.97-.452.042-1.082-.01-1.4-.116-.34-.114-.906-.022-1.377.224-1.467.765-7.586.398-11.96-.716-2.172-.553-5.54-2.067-6.479-2.912-1.843-1.66-2.253-3.264-1.249-4.889 1.406-2.274 6.097-4.33 11.682-5.12 2.744-.388 9.627-.098 12.32.519zm-13.52.996c-4.149.79-7.054 2.179-7.873 3.761-1.623 3.14 1.895 5.834 8.973 6.869 2.853.417 9.3.2 12.127-.407 2.65-.57 5.318-1.873 6.2-3.028.944-1.238.939-2.857-.012-3.987-.891-1.059-2.963-2.07-5.774-2.818-2.89-.769-10.508-.986-13.64-.39zM24.72 6.16c4.404.714 7.486 2.234 6.808 3.358-.464.77-2.311 1.687-4.697 2.33-1.783.481-2.997.589-6.851.609-5.255.027-7.739-.377-10.32-1.681-2.008-1.014-2.31-1.557-1.337-2.404C10.773 6.241 18.66 5.177 24.72 6.16zm-9.832.855c-2.69.722-3.504 2.191-1.943 3.505 1.102.927 2.998 1.289 6.759 1.289 3.76 0 5.657-.362 6.76-1.29 1.557-1.31.71-2.832-1.972-3.545-1.961-.522-7.599-.498-9.604.04zm8.006 1.946c.777.155.835.215.38.394-.667.26-5.804.307-6.724.061-.625-.167-.635-.196-.138-.39.675-.264 5.258-.31 6.482-.065zm-19.43 5.498l.946.722v3.154c0 3.268.236 4.224 1.043 4.216 1.1-.01 1.245-.393 1.238-3.275-.004-1.53.07-2.781.165-2.78.094.003 1.102.301 2.239.664l2.066.658.067 3.954c.037 2.174.129 4.217.204 4.54.157.674.958.973 1.62.603.387-.217.452-.84.452-4.373v-4.12h.648c.357 0 1.411.08 2.342.177l1.694.177v9.045c0 8.66.023 9.057.533 9.33.69.369.726.364 1.239-.148.376-.376.433-1.613.433-9.369v-8.936h2.204v4.94c0 4.124.072 5.012.433 5.374.239.238.608.433.82.433.453 0 1.285-1.167 1.212-1.7-.027-.202-.035-2.38-.017-4.84l.032-4.472.758-.154c1.535-.31 4.906-1.166 5.374-1.365.433-.183.482-.006.482 1.735 0 1.94.37 2.804 1.204 2.804.748 0 1-.705 1-2.788 0-1.17.075-2.32.166-2.557.174-.454 1.985-1.69 2.184-1.49.064.063.126 6.292.138 13.84.02 12.79-.011 13.765-.47 14.314-.635.76-1.547 1.54-1.81 1.547-.114.003-.207-1.725-.207-3.842 0-3.504-.048-3.873-.526-4.13-.397-.212-.666-.164-1.1.198-.534.443-.581.799-.646 4.875l-.07 4.398-1.98.62c-1.09.34-2.577.699-3.307.796l-1.327.176.088-2.663c.095-2.887-.272-4.004-1.319-4.004-.828 0-.964.473-1.112 3.858l-.137 3.169-1.034.085-1.033.086v-1.513c0-1.007-.145-1.657-.433-1.945-.513-.513-.55-.517-1.239-.148-.426.228-.533.584-.533 1.775 0 .82-.098 1.55-.219 1.625-.219.136-3.78-.236-4.947-.516-.62-.148-.62-.163-.62-5.92 0-5.49-.028-5.787-.552-6.067-.391-.21-.71-.21-1.102 0-.523.28-.551.577-.551 5.815v5.52l-.62-.186c-.341-.102-1.153-.416-1.805-.698l-1.184-.512.045-3.016c.025-1.659-.039-3.15-.14-3.316-.25-.402-1.34-.383-1.752.03-.2.2-.331 1.176-.331 2.48 0 1.182-.093 2.146-.207 2.141-.36-.015-1.231-1.392-1.54-2.433-.315-1.055-.608-27.32-.306-27.32.088 0 .586.325 1.107.722zm1.379 10.734c-.315.315-.433.985-.433 2.46 0 2.033.359 2.894 1.205 2.894.756 0 1-.705 1-2.893 0-2.189-.244-2.894-1-2.894-.186 0-.534.195-.772.433zm27.19 4.57c-.213.214-.342 1.14-.342 2.459 0 2.3.292 2.848 1.432 2.686.612-.086.635-.184.635-2.708 0-2.589-.008-2.618-.691-2.698-.38-.045-.845.073-1.034.262z" clip-rule="evenodd"/></svg>